<?xml version="1.0" encoding="UTF-8"?>
<svg width="66px" height="66px" viewBox="0 0 66 66" version="1.1" xmlns="http://www.w3.org/2000/svg" xmlns:xlink="http://www.w3.org/1999/xlink">
    <!-- Generator: Sketch 54.1 (76490) - https://sketchapp.com -->
    <title>0.1 - Little Printer icon</title>
    <desc>Created with Sketch.</desc>
    <defs>
        <path d="M20.6652538,2 L45.3347462,2 C51.129618,2 53.2309786,2.60336647 55.3494971,3.73636257 C57.4680156,4.86935868 59.1306413,6.53198441 60.2636374,8.65050293 C61.3966335,10.7690214 62,12.870382 62,18.6652538 L62,43.3347462 C62,49.129618 61.3966335,51.2309786 60.2636374,53.3494971 C59.1306413,55.4680156 57.4680156,57.1306413 55.3494971,58.2636374 C53.2309786,59.3966335 51.129618,60 45.3347462,60 L20.6652538,60 C14.870382,60 12.7690214,59.3966335 10.6505029,58.2636374 C8.53198441,57.1306413 6.86935868,55.4680156 5.73636257,53.3494971 C4.60336647,51.2309786 4,49.129618 4,43.3347462 L4,18.6652538 C4,12.870382 4.60336647,10.7690214 5.73636257,8.65050293 C6.86935868,6.53198441 8.53198441,4.86935868 10.6505029,3.73636257 C12.7690214,2.60336647 14.870382,2 20.6652538,2 Z" id="path-1"></path>
        <filter x="-12.1%" y="-8.6%" width="124.1%" height="124.1%" filterUnits="objectBoundingBox" id="filter-2">
            <feOffset dx="0" dy="2" in="SourceAlpha" result="shadowOffsetOuter1"></feOffset>
            <feGaussianBlur stdDeviation="2" in="shadowOffsetOuter1" result="shadowBlurOuter1"></feGaussianBlur>
            <feColorMatrix values="0 0 0 0 0   0 0 0 0 0   0 0 0 0 0  0 0 0 0.5 0" type="matrix" in="shadowBlurOuter1"></feColorMatrix>
        </filter>
        <linearGradient x1="100%" y1="0%" x2="0%" y2="100%" id="linearGradient-3">
            <stop stop-color="#E9E9E9" offset="0%"></stop>
            <stop stop-color="#A2A39E" offset="100%"></stop>
        </linearGradient>
        <path d="M19.819426,5 L46.180574,5 C50.6381677,5 52.2545989,5.46412806 53.8842285,6.33566352 C55.5138581,7.20719898 56.792801,8.48614185 57.6643365,10.1157715 C58.5358719,11.7454011 59,13.3618323 59,17.819426 L59,44.180574 C59,48.6381677 58.5358719,50.2545989 57.6643365,51.8842285 C56.792801,53.5138581 55.5138581,54.792801 53.8842285,55.6643365 C52.2545989,56.5358719 50.6381677,57 46.180574,57 L19.819426,57 C15.3618323,57 13.7454011,56.5358719 12.1157715,55.6643365 C10.4861419,54.792801 9.20719898,53.5138581 8.33566352,51.8842285 C7.46412806,50.2545989 7,48.6381677 7,44.180574 L7,17.819426 C7,13.3618323 7.46412806,11.7454011 8.33566352,10.1157715 C9.20719898,8.48614185 10.4861419,7.20719898 12.1157715,6.33566352 C13.7454011,5.46412806 15.3618323,5 19.819426,5 Z" id="path-4"></path>
        <filter x="-1.0%" y="-1.0%" width="101.9%" height="101.9%" filterUnits="objectBoundingBox" id="filter-5">
            <feGaussianBlur stdDeviation="0.5" in="SourceAlpha" result="shadowBlurInner1"></feGaussianBlur>
            <feOffset dx="0" dy="0" in="shadowBlurInner1" result="shadowOffsetInner1"></feOffset>
            <feComposite in="shadowOffsetInner1" in2="SourceAlpha" operator="arithmetic" k2="-1" k3="1" result="shadowInnerInner1"></feComposite>
            <feColorMatrix values="0 0 0 0 0   0 0 0 0 0   0 0 0 0 0  0 0 0 0.355978261 0" type="matrix" in="shadowInnerInner1"></feColorMatrix>
        </filter>
        <path d="M36,22 L36,28 C36,31.3137085 33.3137085,34 30,34 L8,34 C4.6862915,34 2,31.3137085 2,28 L2,22 C0.8954305,22 1.3527075e-16,21.1045695 0,20 L0,14 C-1.3527075e-16,12.8954305 0.8954305,12 2,12 L2,6 C2,2.6862915 4.6862915,2.38507522e-15 8,1.77635684e-15 L30,0 C33.3137085,-6.08718376e-16 36,2.6862915 36,6 L36,12 C37.1045695,12 38,12.8954305 38,14 L38,20 C38,21.1045695 37.1045695,22 36,22 Z" id="path-6"></path>
        <rect id="path-8" x="0" y="0" width="34" height="34" rx="4"></rect>
        <polygon id="path-10" points="0.0222483712 0.0356365439 6.70698275 0.0356365439 6.70698275 1.972 0.0222483712 1.972"></polygon>
        <path d="M50,36 L50,42 C50,45.3137085 47.3137085,48 44,48 L22,48 C18.6862915,48 16,45.3137085 16,42 L16,36 C14.8954305,36 14,35.1045695 14,34 L14,28 C14,26.8954305 14.8954305,26 16,26 L16,20 C16,16.6862915 18.6862915,14 22,14 L44,14 C47.3137085,14 50,16.6862915 50,20 L50,26 C51.1045695,26 52,26.8954305 52,28 L52,34 C52,35.1045695 51.1045695,36 50,36 Z" id="path-12"></path>
        <filter x="-2.6%" y="-2.9%" width="105.3%" height="105.9%" filterUnits="objectBoundingBox" id="filter-13">
            <feGaussianBlur stdDeviation="0.5" in="SourceAlpha" result="shadowBlurInner1"></feGaussianBlur>
            <feOffset dx="0" dy="1" in="shadowBlurInner1" result="shadowOffsetInner1"></feOffset>
            <feComposite in="shadowOffsetInner1" in2="SourceAlpha" operator="arithmetic" k2="-1" k3="1" result="shadowInnerInner1"></feComposite>
            <feColorMatrix values="0 0 0 0 0.197305485   0 0 0 0 0.197305485   0 0 0 0 0.197305485  0 0 0 0.647163723 0" type="matrix" in="shadowInnerInner1"></feColorMatrix>
        </filter>
    </defs>
    <g id="0.1---Little-Printer-icon" stroke="none" stroke-width="1" fill="none" fill-rule="evenodd">
        <g id="Rectangle">
            <use fill="black" fill-opacity="1" filter="url(#filter-2)" xlink:href="#path-1"></use>
            <use fill="#FFFFFF" fill-rule="evenodd" xlink:href="#path-1"></use>
        </g>
        <g id="Rectangle-4-Copy">
            <use fill="url(#linearGradient-3)" fill-rule="evenodd" xlink:href="#path-4"></use>
            <use fill="black" fill-opacity="1" filter="url(#filter-5)" xlink:href="#path-4"></use>
        </g>
        <g id="Page-1" transform="translate(14.000000, 14.000000)">
            <mask id="mask-7" fill="white">
                <use xlink:href="#path-6"></use>
            </mask>
            <use id="Mask" fill="#FFFFFF" xlink:href="#path-6"></use>
            <g mask="url(#mask-7)">
                <g transform="translate(2.000000, 0.000000)">
                    <mask id="mask-9" fill="white">
                        <use xlink:href="#path-8"></use>
                    </mask>
                    <g id="Mask" stroke="none" fill="none"></g>
                    <g id="Page-1-Copy-2" stroke="none" stroke-width="1" fill="none" fill-rule="evenodd" mask="url(#mask-9)">
                        <g transform="translate(-1.000000, -2.500000)" fill="#000000">
                            <path d="M15.3292276,13.3169329 C15.3451369,13.3230558 15.3610774,13.329132 15.3769555,13.3352549 C15.3951109,13.3088469 15.414202,13.2827193 15.4292067,13.2553531 C15.4301425,13.2536471 15.3994781,13.2421958 15.3835064,13.2352549 L15.3292276,13.3169329 Z M12.0091406,13.4082235 C12.025152,13.3877301 12.0506497,13.3682241 12.0479895,13.3553891 C12.0439992,13.3362566 12.0130055,13.3050896 12.0059785,13.3084785 C11.9835928,13.3191788 11.9670042,13.3435147 11.9481821,13.3625404 C11.9662764,13.3760959 11.9843708,13.3896514 12.0091406,13.4082235 L12.0091406,13.4082235 Z M10.3478427,13.4114723 L10.3379203,13.3350802 L10.2268671,13.3717971 C10.2304547,13.3928818 10.2340219,13.4139955 10.2376095,13.4350802 C10.2743471,13.4272206 10.3110847,13.4193319 10.3478427,13.4114723 L10.3478427,13.4114723 Z M3.53429452,13.5359302 C3.5337,13.5048157 3.53310547,13.4737398 3.53251095,13.4426253 C3.49780296,13.4544674 3.46309498,13.4663869 3.4284075,13.4782677 C3.42988356,13.4997073 3.43140063,13.521147 3.43289719,13.5426253 C3.46668263,13.5403807 3.50048858,13.5381748 3.53429452,13.5359302 L3.53429452,13.5359302 Z M8.9081482,13.379385 C8.90763568,13.3497846 8.90710265,13.3202367 8.90659013,13.2905837 C8.87276369,13.295263 8.83895774,13.2999423 8.8051313,13.3046216 C8.80568482,13.3332756 8.80621784,13.3619297 8.80677137,13.3905837 C8.84055681,13.3868508 8.87436276,13.3831179 8.9081482,13.379385 L8.9081482,13.379385 Z M7.08931046,13.2934915 C7.08898245,13.3237772 7.08861343,13.3541264 7.08828542,13.3844121 C7.13113225,13.3873962 7.17397908,13.3904438 7.21684641,13.3934915 C7.21721543,13.3631423 7.21754344,13.3328565 7.21789196,13.3025073 C7.17504513,13.2994597 7.1321778,13.2964756 7.08931046,13.2934915 L7.08931046,13.2934915 Z M15.6862709,13.2236664 C15.6816582,13.1933824 15.677066,13.1630722 15.6724533,13.1327881 C15.6358797,13.1519437 15.5991627,13.1707605 15.5633681,13.1920793 C15.5623636,13.1926787 15.571261,13.2328142 15.5754637,13.2327881 C15.6124062,13.2325536 15.6493283,13.2273933 15.6862709,13.2236664 L15.6862709,13.2236664 Z M20.7999684,13.1060247 C20.7951507,13.0806538 20.790374,13.0552828 20.7855768,13.0299118 C20.7376663,13.0466006 20.6897762,13.0632893 20.6418657,13.080019 C20.648344,13.0976497 20.6565033,13.1310067 20.661034,13.1305357 C20.707694,13.1254983 20.753739,13.1150141 20.7999684,13.1060247 L20.7999684,13.1060247 Z M17.4020712,13.1175124 C17.3170746,13.1000003 17.2594261,13.0854068 17.2247591,13.1746539 C17.2991568,13.225504 17.3483384,13.2138941 17.4020712,13.1175124 L17.4020712,13.1175124 Z M7.41802151,13.2624893 C7.53305193,13.2629193 7.59888024,13.2258151 7.64789784,13.1252526 C7.52702467,13.1410199 7.52702467,13.1410199 7.41802151,13.2624893 L7.41802151,13.2624893 Z M10.9751285,13.169872 C11.1601694,13.1094853 11.3455794,13.0503274 11.5301078,12.9884459 C11.7470685,12.9157117 11.9652389,12.8459262 12.1789195,12.7644483 C12.2912848,12.72159 12.3921696,12.6493063 12.5035714,12.6031511 C12.6708585,12.5338571 12.846633,12.4844871 13.0119521,12.4111795 C13.28937,12.2881129 13.5750087,12.1748547 13.8314951,12.0160557 C14.051818,11.8796586 14.2792958,11.7642094 14.5079625,11.6455863 C14.716723,11.5373245 14.9029529,11.3863682 15.1025494,11.2596567 C15.3238769,11.1191846 15.5495916,10.9856338 15.7722516,10.8472709 C15.8241803,10.8150196 15.8700202,10.7731852 15.9212519,10.7397463 C16.0845824,10.6331431 16.2492045,10.5285058 16.4131705,10.4228855 C16.4530447,10.3971869 16.4975931,10.3759523 16.530989,10.3434144 C16.6624611,10.2153309 16.811441,10.1125774 16.9593343,10.0042952 C17.2975578,9.75664661 17.6126972,9.47650109 17.9284722,9.19959093 C18.2610579,8.90793735 18.5984819,8.6191915 18.9056875,8.30202361 C19.1603494,8.03909923 19.4481407,7.80402354 19.6498078,7.49072579 C19.6969598,7.41747965 19.7660273,7.35754354 19.8286369,7.29510923 C19.957854,7.1662681 20.0930572,7.04870977 20.1941266,6.88812932 C20.3121091,6.70064212 20.4809338,6.54583618 20.6192532,6.37022563 C20.8196288,6.11581967 21.011804,5.85496346 21.2087764,5.59787502 C21.315996,5.45795584 21.4311289,5.32379068 21.5333258,5.18039042 C21.642329,5.02738645 21.7402001,4.86647836 21.843135,4.70915375 C21.9542498,4.53929723 22.0686652,4.37150888 22.1761513,4.19937941 C22.3155982,3.9759756 22.4535076,3.75140459 22.5850412,3.5232706 C22.743759,3.24797812 22.8999962,2.97102701 23.0485045,2.69012384 C23.2830346,2.24657205 23.5190612,1.80340932 23.7371905,1.35174865 C23.8717377,1.0731389 23.9744266,0.779171422 24.0908921,0.491899915 C24.1288802,0.398197269 24.1652693,0.303818884 24.2022939,0.209706699 C24.2534025,0.0797802812 24.3257501,0.0273387438 24.4707118,0.0366148142 C24.5545604,0.0420002591 24.6370764,0.0682517433 24.7297199,0.0870496079 C24.6413611,0.31170252 24.5659999,0.51137352 24.4845704,0.708546329 C24.3534058,1.02618519 24.22956,1.34757134 24.0818922,1.65751086 C23.8872569,2.06610846 23.6731047,2.46545046 23.4662099,2.86817116 C23.3954819,3.00585835 23.3338357,3.15048724 23.246133,3.27674827 C23.0662788,3.53561821 22.9582597,3.83445921 22.7653874,4.08745226 C22.6192777,4.27911676 22.5129807,4.50106671 22.3890529,4.70958377 C22.3170948,4.83068461 22.250795,4.95559417 22.1722561,5.07227198 C22.0034109,5.32311494 21.8323106,5.57266786 21.6541785,5.81695819 C21.5511411,5.95829029 21.4279513,6.08481752 21.3223103,6.2243886 C21.1983005,6.38816346 21.0865092,6.56113248 20.9631759,6.72543974 C20.9147529,6.78998317 20.8451524,6.83826788 20.7925676,6.90021074 C20.6225744,7.10049605 20.4432327,7.29437206 20.2787337,7.49707366 C20.0645815,7.76096046 19.8269764,7.99855482 19.5935124,8.24249704 C19.491664,8.34889541 19.4242572,8.48946986 19.3180831,8.59023706 C19.0024106,8.88991761 18.6983211,9.21009562 18.345296,9.45958711 C18.0600263,9.6612239 17.8374278,9.9226125 17.5652787,10.131662 C17.5285206,10.1598997 17.4881749,10.183653 17.4483417,10.2075906 C17.4024607,10.2351936 17.3513316,10.2555477 17.3093868,10.2879832 C17.1125168,10.44025 16.9227402,10.6021 16.7212371,10.7477937 C16.553417,10.8691198 16.3711232,10.970317 16.1983213,11.085029 C16.0574598,11.1785064 15.9274432,11.2897169 15.781518,11.3738363 C15.4743943,11.5508188 15.1897192,11.762305 14.8830466,11.9418267 C14.6242845,12.0932949 14.354452,12.2276853 14.097453,12.3836584 C13.8005593,12.5638763 13.4927386,12.7323404 13.1474629,12.8156817 C13.0528103,12.8385135 12.9565587,12.8831533 12.8787169,12.9413489 C12.7012818,13.0739987 12.4885237,13.1111235 12.2895217,13.1859054 C12.2563923,13.198335 12.2275886,13.2222111 12.1638718,13.2606873 C12.2287161,13.2795057 12.2617635,13.301498 12.284335,13.2935938 C12.4099029,13.2496093 12.5319241,13.195632 12.6570819,13.1503779 C12.7832443,13.1047961 12.9116618,13.0654394 13.0390953,13.0232978 C13.127167,12.9942 13.2165303,12.9685014 13.3030235,12.9352877 C13.6164204,12.814965 13.9302273,12.6954614 14.2411231,12.5689136 C14.4039001,12.5026501 14.5595017,12.4188993 14.7212536,12.34981 C14.8194323,12.3078527 14.928251,12.2889729 15.0231291,12.2414663 C15.1489839,12.1784382 15.2629483,12.0920868 15.3872861,12.025598 C15.6124267,11.9051934 15.8450707,11.7985288 16.0677512,11.6739264 C16.2500245,11.5719511 16.4221703,11.451915 16.5992774,11.3406841 C16.6333089,11.3193061 16.6689189,11.3000578 16.7051439,11.2826523 C16.9554186,11.1625139 17.1839214,11.0093871 17.4053104,10.8423154 C17.5437733,10.7377805 17.6979399,10.6539068 17.8454232,10.5613304 C17.8625209,10.55058 17.8840058,10.5462388 17.899935,10.5342598 C18.0664226,10.4087564 18.2312497,10.2810006 18.3985368,10.156562 C18.5016357,10.0798757 18.6124635,10.0130798 18.7121182,9.93233907 C18.8283992,9.8381245 18.9375458,9.73492054 19.047369,9.63306805 C19.1314431,9.5551122 19.199588,9.46013999 19.3240694,9.43331515 C19.3659732,9.42430528 19.4020752,9.38011596 19.4369062,9.34782377 C19.6866274,9.11627011 19.9363075,8.88465503 20.1840606,8.65101273 C20.3971262,8.4500312 20.6063172,8.24497475 20.8197928,8.04444372 C20.929042,7.94183359 21.022977,7.83244558 21.105821,7.70378874 C21.2037127,7.55172671 21.351155,7.43158828 21.4764359,7.29695216 C21.6518004,7.10844112 21.8371693,6.92791609 21.9988802,6.72830652 C22.2074151,6.47089044 22.3956131,6.19709279 22.5947792,5.93201832 C22.7739568,5.69360488 22.9714008,5.46729334 23.1328247,5.21757661 C23.3039045,4.95285025 23.5187536,4.71609545 23.6383148,4.41598487 C23.6869838,4.29377828 23.7885452,4.19260154 23.865772,4.08171871 C23.9078398,4.0213321 23.9564064,3.96422181 23.9900278,3.89941218 C24.2074396,3.4803099 24.4663041,3.08393706 24.6578848,2.65007088 C24.7389658,2.46643335 24.8788638,2.30951828 24.9702362,2.12942327 C25.0952915,1.88302381 25.1981444,1.62544392 25.3131338,1.3738433 C25.4370616,1.10270765 25.5670577,0.834295443 25.6882384,0.561951652 C25.7401671,0.445212408 25.7697294,0.318521353 25.8218221,0.201884493 C25.8739968,0.0850633412 25.971622,0.0311065075 26.1036066,0.0409149794 C26.2568917,0.0523206554 26.2908001,0.106257012 26.2411675,0.255227018 C26.1329024,0.580176162 25.9862391,0.88958328 25.8601997,1.20695594 C25.5552287,1.97486305 25.1196261,2.6774486 24.7791885,3.42688547 C24.5614077,3.62864512 24.5384672,3.95459764 24.3153767,4.15308097 C24.3053723,4.16198846 24.2931947,4.17290268 24.2904271,4.18482028 C24.2312001,4.44172443 24.0341047,4.62286377 23.9199558,4.85126397 C23.8043309,5.08253094 23.6279823,5.28361486 23.4771574,5.49716925 C23.3032074,5.7434868 23.1295855,5.99009103 22.952827,6.23440184 C22.8700444,6.34880671 22.7825262,6.45999669 22.6930809,6.56934375 C22.5352446,6.7622983 22.3669529,6.94714397 22.21662,7.14566826 C22.052326,7.3626423 21.818616,7.52287465 21.6713172,7.74058586 C21.4463406,8.07317292 21.1443832,8.32358587 20.8746326,8.60731486 C20.6407996,8.8532843 20.379352,9.07306369 20.1297333,9.30404399 C19.9897533,9.43360182 19.8493633,9.56272964 19.7085633,9.69140696 C19.5941889,9.79594193 19.5000899,9.92818224 19.3354679,9.96493842 C19.3234133,9.96764138 19.3118303,9.97921087 19.3031995,9.98934697 C19.0846191,10.2456982 18.7804066,10.3969617 18.5304189,10.615881 C18.3710656,10.7554316 18.1833801,10.8631405 18.0062525,10.9819684 C17.8780606,11.0679717 17.7493151,11.1538726 17.6156084,11.2308456 C17.3538327,11.3815561 17.1085807,11.5608321 16.8614016,11.7299514 C16.6442768,11.8785119 16.402633,11.9797501 16.1892189,12.1355184 C15.9763583,12.2908772 15.7141931,12.3793173 15.4724468,12.4945822 C15.1694848,12.6390473 14.8663178,12.7831642 14.5612443,12.9231244 C14.377413,13.0074281 14.1895634,13.0829267 14.0042765,13.1640974 C13.9818895,13.1739264 13.9642383,13.1945467 13.9019976,13.2434867 C13.9911354,13.2395551 14.0339823,13.2462716 14.0710479,13.2346406 C14.3346891,13.1518727 14.5977564,13.067139 14.8595116,12.9785556 C14.916176,12.9593686 14.96423,12.9157322 15.0203819,12.8939652 C15.2706361,12.7969657 15.5251135,12.7103686 15.7728256,12.6074718 C16.0353598,12.4984114 16.2930763,12.3774334 16.5508953,12.2574383 C16.8136551,12.1351294 17.0772143,12.0138238 17.3344593,11.8806415 C17.5681078,11.7596226 17.7975536,11.6294095 18.0219972,11.4920499 C18.3032282,11.3199409 18.5766689,11.1351567 18.8550093,10.9582561 C18.9915657,10.8714542 19.1331652,10.7926792 19.269455,10.7055497 C19.3945514,10.6255666 19.5185612,10.5432287 19.6377123,10.4548091 C19.8384159,10.3058186 20.0342402,10.1503574 20.2335497,9.9994626 C20.297697,9.95091169 20.3677895,9.91028536 20.4324492,9.86234876 C20.519414,9.79786676 20.6087568,9.73524817 20.6881362,9.66214536 C20.8523892,9.51086146 21.0037267,9.35144819 21.2064803,9.23958247 C21.363107,9.15312867 21.4843697,9.00192668 21.619409,8.87740618 C21.8346887,8.67886141 22.0551756,8.4852516 22.2601844,8.27657073 C22.3824311,8.15211167 22.4764276,8.00035679 22.5886699,7.8655159 C22.6714319,7.76610018 22.7611233,7.67211085 22.8514501,7.5793092 C22.9835783,7.44356732 23.1472163,7.33602223 23.2233975,7.15074655 C23.235493,7.12130066 23.2668184,7.0982231 23.292629,7.07618988 C23.5538921,6.85325703 23.7354684,6.56623125 23.9351059,6.29259741 C24.0584597,6.12351901 24.205615,5.97192795 24.3372716,5.80864454 C24.4091477,5.71948778 24.4728644,5.62355315 24.5371347,5.52856045 C24.7638949,5.19335234 24.9922746,4.85918856 25.2139506,4.5206427 C25.3244913,4.35183051 25.4201484,4.1733327 25.5255229,4.0010599 C25.6767169,3.75392326 25.8392068,3.51323688 25.9809909,3.26087862 C26.1168912,3.01904552 26.2323316,2.7657658 26.3571205,2.51768722 C26.5583776,2.1175671 26.7722632,1.72322148 26.9577551,1.31593441 C27.1281379,0.941799571 27.2725461,0.555501405 27.4179383,0.17061615 C27.4498582,0.086107667 27.4920285,0.0443960654 27.57436,0.0390515745 C27.6354116,0.035099518 27.6980008,0.033277067 27.7582528,0.0419593052 C27.8804176,0.0595695052 27.9186927,0.130890815 27.8692446,0.24674955 C27.6842447,0.680185716 27.4817165,1.10690543 27.3153314,1.5472833 C27.1188305,2.06733707 26.8458818,2.54850507 26.5889444,3.03681954 C26.4449052,3.31057624 26.2933012,3.58068804 26.1517427,3.85653339 C26.0577052,4.03976138 25.924511,4.20294241 25.809419,4.37546094 C25.7870936,4.40889984 25.7635586,4.44233874 25.7470554,4.47870585 C25.6497992,4.69334552 25.5109263,4.88130369 25.3769326,5.07335726 C25.2312533,5.28218147 25.1021388,5.50253421 24.9568081,5.71160415 C24.8532172,5.86067654 24.732262,5.9975856 24.6236074,6.14329977 C24.5033082,6.30459692 24.3941411,6.47445344 24.2692702,6.63202377 C24.1189168,6.82174296 23.9555248,7.00112128 23.8009687,7.18762558 C23.7198057,7.28554649 23.6515788,7.39464782 23.5664797,7.48876 C23.457169,7.60965607 23.3319087,7.71621826 23.222885,7.83733958 C23.1519315,7.91617594 23.1042054,8.01565309 23.0343384,8.09567712 C22.9363853,8.20789095 22.8309082,8.31422789 22.7227046,8.41679707 C22.2825508,8.83405642 21.8451646,9.25451018 21.3951294,9.66091674 C21.2779054,9.76678271 21.129356,9.83912787 21.0070273,9.94630437 C20.7689096,10.1549033 20.5271633,10.3604103 20.2754125,10.5521362 C20.1111595,10.6772096 19.924007,10.7718337 19.7520252,10.8874057 C19.6292044,10.9699484 19.5180897,11.0697942 19.3954534,11.1526235 C19.2073374,11.2796627 19.0135016,11.3982449 18.8226384,11.521291 C18.6088553,11.6591216 18.4061426,11.8188625 18.1798745,11.9315473 C17.8121503,12.1146729 17.4736603,12.3516324 17.0861322,12.4994148 C16.8539598,12.5879982 16.6396641,12.7224091 16.412986,12.8268212 C16.3105226,12.8740001 16.1944466,12.8910984 16.0901382,12.9350829 C15.9997498,12.9731906 15.9172543,13.0299732 15.7912354,13.1010898 C15.92322,13.1359211 15.993497,13.126727 16.0833524,13.0987964 C16.3984713,13.000814 16.6799689,12.8129378 17.011222,12.7595748 C17.069752,12.7501349 17.1236488,12.7123753 17.1798212,12.6879054 C17.6503573,12.4830537 18.1255266,12.2880719 18.5898715,12.0700126 C18.9009313,11.9239298 19.1992805,11.7498346 19.4983883,11.579589 C19.7671138,11.4266669 20.041477,11.2831438 20.2903577,11.0958818 C20.4021899,11.0117419 20.5349536,10.9555531 20.6571593,10.8848256 C20.6921748,10.8645534 20.7284204,10.8424793 20.7556661,10.8133405 C20.9112062,10.647047 21.1124018,10.5497609 21.3072421,10.4424206 C21.3368454,10.4261209 21.3653826,10.4063606 21.3907422,10.3840612 C21.5326903,10.2590083 21.6889069,10.151668 21.8365132,10.0358297 C22.182199,9.76450977 22.5529984,9.51942083 22.8436803,9.18161215 C22.9276314,9.08405983 23.0168717,8.99154485 23.1566467,8.96451524 C23.2035117,8.95544394 23.2437754,8.90298193 23.2831781,8.86620528 C23.4924715,8.67091635 23.7006784,8.47443976 23.9088648,8.27794269 C23.9282381,8.25967722 23.9571444,8.2404903 23.9608345,8.21827278 C23.995891,8.00809709 24.1724241,7.90487265 24.3054543,7.77519195 C24.6132954,7.47506091 24.8987291,7.15762681 25.1441246,6.80458326 C25.1596643,6.7822224 25.1785661,6.76219592 25.1958073,6.74102272 C25.4393987,6.44236602 25.6880334,6.14764089 25.9250235,5.84386494 C26.1366745,5.57256547 26.3468085,5.29876782 26.5366876,5.01221301 C26.7191454,4.73679767 26.8676128,4.43912386 27.0444533,4.15969503 C27.1848228,3.93792938 27.2931905,3.69830779 27.4547579,3.48710826 C27.5598249,3.34976917 27.610831,3.17217235 27.6938801,3.01677258 C27.8213955,2.77815437 27.9563118,2.54348821 28.0866974,2.30640578 C28.1649697,2.16407031 28.2487978,2.02400779 28.3154257,1.87632784 C28.3983517,1.69250602 28.462868,1.50047293 28.5416528,1.31466484 C28.591921,1.1961441 28.6598609,1.08501555 28.7089605,0.966044311 C28.8092098,0.723105459 28.9014432,0.476869814 28.9982073,0.232477097 C29.0875092,0.00694367495 29.2575844,-0.0375732725 29.5010323,0.121901422 C29.3677356,0.444720961 29.2196578,0.768359578 29.0997892,1.10211382 C28.9277048,1.58131603 28.686512,2.02654694 28.4591778,2.47898574 C28.2927722,2.81020084 28.1289702,3.1428698 27.9542002,3.46968235 C27.7634601,3.82639128 27.5727199,4.18400121 27.3609049,4.52830109 C27.1751669,4.83017268 26.9580011,5.11261162 26.7589991,5.40653815 C26.6200442,5.61173793 26.4891051,5.82236411 26.3525488,6.02920206 C26.3303873,6.0627843 26.2945108,6.08706999 26.2702582,6.11956695 C26.1263216,6.31225531 25.9940499,6.51473165 25.8383868,6.69734533 C25.6585941,6.90827867 25.5147395,7.14921078 25.3011203,7.33266401 C25.2367271,7.38801328 25.1964018,7.47049454 25.140414,7.53665565 C25.0747907,7.61424292 25.0031401,7.68669046 24.9358767,7.76292625 C24.7795165,7.94009305 24.6330378,8.12702737 24.4665912,8.29409902 C24.134887,8.62699323 23.7941624,8.95097996 23.4536019,9.27490525 C23.3224988,9.39958957 23.1936098,9.52064945 23.0284957,9.61369683 C22.8555913,9.71108534 22.742242,9.91012155 22.5735402,10.0197143 C22.3355251,10.174336 22.1612061,10.4119713 21.8928087,10.5232432 C21.8559276,10.53856 21.8199485,10.56432 21.7930309,10.5938888 C21.6085435,10.7965903 21.3753665,10.9297521 21.1392169,11.0597195 C21.1038324,11.0791931 21.0724866,11.1072875 21.0422888,11.1347471 C20.8430408,11.3159889 20.614579,11.4506864 20.3752723,11.5724016 C20.2446202,11.6388289 20.1302253,11.7364426 20.0036324,11.8118389 C19.865682,11.8939925 19.7198388,11.9628975 19.5817449,12.0448054 C19.478359,12.1061135 19.3850595,12.1845403 19.2811405,12.2448041 C19.1891531,12.2981056 19.0887808,12.3369709 18.9920167,12.3819998 C18.7593317,12.490323 18.5337401,12.6203723 18.2914812,12.6994134 C18.1172648,12.7562575 17.958342,12.8409912 17.7895378,12.9055961 C17.6873204,12.9446866 17.5925039,13.003046 17.4983433,13.0864487 C17.5392221,13.0911994 17.5872966,13.1123726 17.6198725,13.0981411 C17.9900979,12.9364549 18.3902545,12.8610996 18.7574047,12.6856529 C19.0605511,12.5407783 19.3925423,12.4567203 19.6980464,12.3160435 C20.0896336,12.1357232 20.4922503,11.9757161 20.8532912,11.7313029 C20.9969409,11.6340577 21.1650276,11.5727906 21.3222078,11.4955924 C21.3343033,11.4896541 21.349884,11.4898384 21.3607289,11.4825281 C21.6570486,11.2831847 21.9532657,11.0836571 22.2488064,10.8831465 C22.3605771,10.8073408 22.4688423,10.7262929 22.5818431,10.6524529 C22.7561211,10.5385395 22.9331871,10.4288853 23.1087976,10.3169786 C23.1259979,10.3060234 23.1428291,10.2935325 23.1569542,10.2789733 C23.2900664,10.14188 23.4611052,10.0481773 23.5993426,9.92482402 C23.9281151,9.6314299 24.3058438,9.39926193 24.6088057,9.07197841 C24.8758296,8.78347829 25.1901081,8.53916748 25.4734917,8.26500124 C25.713557,8.03275137 25.9580094,7.80052197 26.1647402,7.53995245 C26.3004765,7.36886731 26.45247,7.21664146 26.5939261,7.05319423 C26.7520698,6.87045769 26.8873756,6.66814516 27.0348179,6.47600969 C27.1496843,6.32628203 27.2700655,6.18073168 27.3840913,6.03036924 C27.5719614,5.78257735 27.7609795,5.53544072 27.9414077,5.28228385 C28.1020115,5.05691425 28.2565266,4.82681446 28.4045225,4.59300834 C28.5202294,4.41021037 28.6197612,4.21729677 28.7301174,4.03103819 C28.8815574,3.77546504 29.0462409,3.52722265 29.1873689,3.26620263 C29.3613804,2.94430456 29.5195241,2.61370377 29.6799025,2.28463875 C29.8523558,1.93079659 30.0258138,1.57720016 30.1868686,1.21813637 C30.3170287,0.928018566 30.429271,0.629873784 30.5498367,0.335455813 C30.5678159,0.291532698 30.5858157,0.247404813 30.6074236,0.205201764 C30.7159758,-0.00696019225 30.8723359,-0.0361808381 31.0767092,0.114079217 C30.979412,0.393630904 30.8863995,0.673817376 30.7834851,0.95033847 C30.7414173,1.0633509 30.6698488,1.16524434 30.6255874,1.27764247 C30.3702695,1.92614832 30.0553145,2.54741979 29.7274645,3.16000903 C29.5945983,3.4082719 29.4756727,3.66505318 29.3312031,3.90684533 C29.1693897,4.17761239 28.9920981,4.43914434 28.8225968,4.70536551 C28.7974218,4.7448656 28.7803445,4.78946445 28.755559,4.82925122 C28.6418611,5.01180347 28.5275482,5.19400761 28.4118003,5.3752698 C28.3540698,5.46565518 28.2944123,5.55491432 28.2327866,5.64269912 C28.0704812,5.87390466 27.902743,6.09988858 27.7169026,6.31436443 C27.5338092,6.52568683 27.3712578,6.75842815 27.2166607,6.98967465 C27.0969151,7.16880724 26.9220631,7.2892733 26.8096158,7.46138229 C26.6817723,7.65708075 26.5266012,7.82355857 26.3651363,7.98770202 C26.2507004,8.10403172 26.1175882,8.20731759 26.0254368,8.33916885 C25.7886517,8.67785804 25.4712776,8.93418884 25.1726208,9.2095837 C25.0795059,9.29544366 24.9582022,9.35017862 24.86111,9.43247559 C24.7157793,9.55568556 24.5791205,9.68927735 24.4413136,9.82106718 C24.3437089,9.91442171 24.2646165,10.0313862 24.1157392,10.0539723 C24.0979854,10.0566548 24.0823432,10.0763741 24.0666806,10.0893565 C23.8273123,10.2877784 23.5933768,10.4933468 23.3468743,10.6825131 C23.1894276,10.8033273 23.0114595,10.8970914 22.8463659,11.0084452 C22.7241807,11.0908445 22.6087198,11.1831342 22.4887281,11.2688918 C22.4019684,11.3308756 22.3145322,11.3922861 22.2241438,11.4487821 C22.0480618,11.5588253 21.8710777,11.6675581 21.6919001,11.7725026 C21.4839802,11.8943201 21.2748917,12.0143357 21.0631177,12.1293139 C20.9640575,12.1831069 20.8569404,12.2218903 20.754764,12.2701955 C20.7126552,12.2901196 20.671879,12.3143643 20.6340139,12.3415168 C20.4574398,12.468085 20.2656541,12.561501 20.0551921,12.6173007 C20.0103772,12.6291774 19.9668128,12.6484462 19.9251961,12.6693327 C19.7389046,12.7628716 19.5568363,12.8657069 19.3665062,12.9500721 C19.25697,12.998623 19.1347643,13.0188133 19.0179913,13.0508393 C18.9602813,13.066668 18.917004,13.0922437 18.930063,13.1726159 C18.9612859,13.1733121 18.9992945,13.1857621 19.0241416,13.1729025 C19.1984195,13.0828243 19.3873146,13.0426485 19.5743031,12.9903093 C19.7991567,12.9273836 20.0117713,12.8216405 20.2357228,12.7544965 C20.4710319,12.6839738 20.6800588,12.5429284 20.9076391,12.4772587 C21.3622255,12.3461037 21.7521726,12.0828926 22.1883083,11.918012 C22.4083032,11.8348345 22.6146035,11.7136313 22.8224619,11.6011308 C22.9704782,11.5210248 23.1092486,11.4241483 23.2548664,11.3393531 C23.4582761,11.2209347 23.6693941,11.1149254 23.8674941,10.9883982 C24.0375488,10.8797883 24.1923919,10.7476299 24.3570755,10.6302559 C24.4337488,10.5756438 24.5186839,10.5327445 24.5983913,10.4822278 C24.895736,10.2937372 25.1663681,10.06804 25.4517608,9.86492886 C25.6594551,9.71710557 25.8341226,9.54120834 26.0259493,9.38060741 C26.1339274,9.29018108 26.2615044,9.22318041 26.3704255,9.1337165 C26.5119431,9.01744823 26.6470233,8.89278439 26.778885,8.76558141 C27.0189707,8.53396633 27.2573549,8.30048784 27.4903884,8.06184915 C27.5546791,7.99603615 27.5933028,7.9059784 27.6512383,7.83301894 C27.727317,7.73718669 27.8097305,7.64624843 27.891447,7.5550235 C28.1045741,7.31708103 28.3257171,7.08587549 28.5303773,6.84088894 C28.6853435,6.65532657 28.803572,6.43753345 28.967784,6.26169765 C29.1545675,6.06169902 29.2869007,5.82686905 29.4454955,5.60946499 C29.5922407,5.40831964 29.7171116,5.19130465 29.8528274,4.98205042 C29.9040796,4.90300929 29.9605185,4.82732638 30.0114426,4.74808048 C30.1353294,4.55524879 30.2602003,4.36294951 30.3789618,4.16696436 C30.4421455,4.06273655 30.4944228,3.95181277 30.5499597,3.84303907 C30.7654854,3.42086524 30.9813801,2.9988757 31.1950197,2.57573945 C31.3203826,2.32741516 31.4514037,2.08126142 31.5621904,1.82648687 C31.6753553,1.56630641 31.7667482,1.29668605 31.86792,1.03130444 C31.9451673,0.828582366 32.0230911,0.626106021 32.1001129,0.423302043 C32.1238324,0.360826787 32.1498275,0.298781547 32.1673763,0.234504317 C32.2145078,0.0616376798 32.3314448,-0.00771784039 32.5087774,0.0335023138 C32.5863117,0.0515220533 32.6307371,0.0949741979 32.6254479,0.175858256 C32.6219422,0.229426027 32.6185596,0.286065345 32.5992272,0.335087227 C32.4610923,0.685448299 32.3024361,1.02870386 32.1825879,1.38504421 C32.0642979,1.73677724 31.8973592,2.06639513 31.7573793,2.40778729 C31.6219915,2.73793759 31.4526952,3.05533072 31.282825,3.37000043 C31.036466,3.82641176 30.7936741,4.28454316 30.5306478,4.73257941 C30.3748002,4.99808389 30.1874632,5.24556863 30.0542895,5.52516127 C30.0145588,5.60854352 29.948628,5.67990579 29.8919635,5.75466723 C29.7870606,5.89300968 29.6772579,6.02774819 29.574856,6.16789262 C29.4876863,6.28719149 29.4075893,6.4116915 29.3254628,6.5346148 C29.3106202,6.55681184 29.305331,6.58611439 29.2884177,6.60607944 C29.1102446,6.81639847 28.9165933,7.01535278 28.7554155,7.23783513 C28.603176,7.44796987 28.392837,7.6151439 28.2619184,7.82759254 C28.0604973,8.15442556 27.7703689,8.38278481 27.5082652,8.64253526 C27.1847203,8.96316376 26.8525651,9.27629769 26.5089294,9.57524107 C26.2497164,9.80075402 25.9661072,9.99823398 25.6945731,10.2097611 C25.6409633,10.2514932 25.5947544,10.3026038 25.5420876,10.3456464 C25.2603236,10.5757257 24.9634094,10.7834032 24.6489465,10.9676755 C24.4992081,11.0554193 24.3654603,11.1699675 24.2208677,11.2670079 C24.0993795,11.3485473 23.972438,11.4218958 23.8483667,11.4996264 C23.6436655,11.6278737 23.4407683,11.7590697 23.2342425,11.8843069 C23.1197451,11.9537648 23.0015165,12.0178372 22.8813814,12.0770362 C22.4880721,12.2708712 22.0957673,12.4670612 21.6978043,12.6510058 C21.4609577,12.7604553 21.2139016,12.847892 20.9723193,12.9473282 C20.9435976,12.9591434 20.9203906,12.9842482 20.8944365,13.0033532 C20.930436,13.0843191 20.9861779,13.0771932 21.0318539,13.0441024 C21.1781481,12.9382159 21.3554192,12.9300661 21.5189342,12.8784436 C21.6467161,12.838104 21.7746006,12.7961262 21.8979749,12.744258 C22.1965291,12.6187546 22.4851405,12.4653001 22.791075,12.3627719 C23.3023054,12.1914615 23.7669783,11.9253837 24.2465758,11.690308 C24.4571403,11.587104 24.6449078,11.4378678 24.8448528,11.3124259 C24.9073805,11.273192 24.9789081,11.2481486 25.0410052,11.2083209 C25.2278707,11.0883873 25.4102465,10.9613891 25.598055,10.8429502 C25.7339758,10.7571926 25.878999,10.6856461 26.0139768,10.5985166 C26.1271211,10.5254752 26.2317166,10.4391647 26.3398792,10.358465 C26.5291638,10.2172352 26.7177514,10.0750841 26.907692,9.93477583 C26.988732,9.8749421 27.0742821,9.82119004 27.154502,9.76035294 C27.235829,9.69865581 27.3154339,9.63423524 27.3916972,9.56641549 C27.5583488,9.41816218 27.703003,9.25104958 27.9070277,9.13856954 C28.0691691,9.04920802 28.194122,8.89137148 28.3326874,8.76085123 C28.5310129,8.57401929 28.7305684,8.38825216 28.9215956,8.19413042 C29.0007084,8.11373781 29.0581109,8.01223344 29.1271578,7.92168425 C29.18905,7.84057494 29.247826,7.75610741 29.3177135,7.68230839 C29.4761238,7.51507292 29.6631943,7.37304461 29.7641201,7.15672583 C29.775047,7.13334112 29.8004271,7.11640666 29.8199235,7.09732212 C30.0568316,6.86546131 30.2550956,6.60392936 30.4377994,6.32757208 C30.5452445,6.1650668 30.6844659,6.02383709 30.8033505,5.86843731 C30.8894337,5.75589585 30.9703711,5.63872659 31.0453428,5.5184653 C31.3064215,5.09948588 31.6045452,4.70444405 31.8268567,4.26001174 C31.9657297,3.98234394 32.1535382,3.72933041 32.2971263,3.45366935 C32.5978127,2.8764029 32.8892941,2.29414007 33.1730058,1.70835519 C33.2819269,1.48345656 33.3596457,1.24346639 33.4509771,1.01013124 C33.4732206,0.953307632 33.493332,0.895644465 33.5140378,0.8382475 C33.5942578,0.61615421 33.6760358,0.394593322 33.7533856,0.171517137 C33.7767976,0.104025022 33.7985285,0.0314750931 33.8805115,0.0323760801 C33.9804738,0.0334818368 34.0837777,0.0429217231 34.1776922,0.0732890796 C34.2025598,0.0813160545 34.2256233,0.196232848 34.2028058,0.2335419 C34.0588691,0.468842839 34.0346986,0.743787206 33.9387135,0.99456874 C33.8844067,1.13647419 33.880655,1.29750513 33.8522408,1.44956716 C33.8264097,1.58795057 33.8074464,1.72856597 33.7685562,1.86336591 C33.7010468,2.09752014 33.7330692,2.35370759 33.6490156,2.573917 C33.5582992,2.81167518 33.658897,3.06542587 33.5386389,3.29057023 C33.5215617,3.32253479 33.5346002,3.37098332 33.5350307,3.41177346 C33.5367323,3.57225153 33.5804402,3.73166479 33.4897033,3.8905047 C33.4554053,3.95056367 33.4889858,4.05036846 33.4945825,4.13184635 C33.505776,4.29437211 33.5327141,4.45603784 33.4617401,4.61512347 C33.4411572,4.66123763 33.4502186,4.72283237 33.4534578,4.77687111 C33.4657583,4.98112896 33.4870997,5.18503869 33.4928399,5.38939892 C33.495423,5.480931 33.4682184,5.57315931 33.4562664,5.6653057 C33.4493576,5.71856632 33.4375901,5.7730146 33.4422028,5.82572234 C33.5045869,6.53940641 33.5690212,7.25290619 33.6345215,7.96632406 C33.6394827,8.02001469 33.6398312,8.0867082 33.670849,8.12315722 C33.7734559,8.24368471 33.7694788,8.38513966 33.7788887,8.52745465 C33.7910457,8.71103075 33.8092095,8.8941973 33.8253026,9.07748672 C33.8270862,9.0976975 33.8255487,9.12321181 33.8368856,9.136829 C33.984943,9.31467154 33.9373809,9.53828013 33.9826264,9.73999883 C33.998166,9.80921101 34.0352111,9.87332442 34.0554045,9.94186086 C34.0780784,10.0189567 34.0979233,10.0976087 34.1098138,10.176957 C34.1295971,10.3090745 34.1071487,10.4486865 34.218694,10.5595079 C34.2504498,10.5910834 34.2463906,10.6628962 34.2508188,10.716894 C34.2608643,10.8389982 34.2727753,10.9521335 34.3518061,11.0619105 C34.4011518,11.1304879 34.3871907,11.2447495 34.4009672,11.3385954 C34.4126527,11.4182509 34.4046574,11.5041723 34.4829913,11.5604225 C34.4975674,11.5708863 34.511713,11.5958068 34.5101754,11.6126388 C34.4920526,11.812146 34.6215977,11.9694706 34.665203,12.1522276 C34.7144051,12.3584922 34.8144699,12.5521225 34.8762801,12.7561142 C34.9170768,12.8908322 34.9358966,13.030649 35.0195402,13.1507465 C35.0566878,13.2041095 35.0760406,13.2696563 35.1052338,13.3287938 C35.1471171,13.4136299 35.1574291,13.4999813 35.1015437,13.5800872 C35.0451868,13.6608484 34.9524613,13.6954545 34.8662141,13.6676263 C34.7507327,13.6303582 34.699952,13.5145199 34.6623944,13.4096369 C34.5863772,13.1974544 34.5050912,12.9836748 34.4454746,12.7701204 C34.3918444,12.5779849 34.301743,12.3984428 34.253935,12.2019662 C34.2067419,12.0079878 34.2015962,11.7854645 34.0662289,11.612045 C34.0402133,11.578729 34.0440675,11.5212501 34.0368102,11.4745011 C34.0213115,11.3744711 34.0252477,11.2688304 33.9421576,11.1904445 C33.9286886,11.1777078 33.9182331,11.1531559 33.9193812,11.13487 C33.9379755,10.8363566 33.7622829,10.5775277 33.7470098,10.2858126 C33.7420691,10.1919257 33.7194771,10.10668 33.6680609,10.0183219 C33.6168497,9.93033233 33.6182643,9.81005056 33.6036062,9.70299693 C33.5827363,9.55099633 33.6139181,9.38863438 33.4894163,9.25985468 C33.4617196,9.23120739 33.4654098,9.1692031 33.4606946,9.12198319 C33.4437403,8.95229049 33.4296562,8.7823111 33.4139116,8.61249553 C33.40075,8.47079485 33.3946407,8.33050709 33.3117352,8.20195263 C33.2740751,8.14359324 33.2729065,8.05820425 33.2660797,7.98407759 C33.2002924,7.27065972 33.1358992,6.55711899 33.0735765,5.84341445 C33.062424,5.71578145 33.0355884,5.58571169 33.1059064,5.46266554 C33.1215691,5.43528782 33.1187194,5.39629966 33.1205235,5.36243074 C33.1223071,5.32847991 33.119068,5.29426288 33.1183504,5.26014824 C33.1115236,4.93771777 33.0162971,4.61813359 33.073392,4.2803249 C33.0451623,4.31128609 33.0018029,4.33784473 32.9912245,4.37396612 C32.932715,4.57378046 32.8905652,4.77863213 32.8266435,4.97654211 C32.7587856,5.18661542 32.6709188,5.39017704 32.5953321,5.59785454 C32.522226,5.79877464 32.453507,6.00131241 32.3831685,6.20325636 C32.3765057,6.22240233 32.3740661,6.24316599 32.3663578,6.26182051 C32.276646,6.47910171 32.1912188,6.69832822 32.0950902,6.91276313 C31.9020539,7.34333252 31.7030109,7.77119894 31.5066125,8.20025304 C31.4562624,8.31019393 31.4220259,8.43133572 31.353512,8.52841707 C31.1631409,8.79809885 31.0483155,9.11063895 30.8486574,9.37583627 C30.7040647,9.56788984 30.5985877,9.78881594 30.4621339,9.98758595 C30.3064502,10.2143685 30.1184982,10.4204897 29.9768372,10.6550535 C29.8547544,10.8572432 29.6682375,10.9996605 29.5385284,11.1865539 C29.1460802,11.7520461 28.5998548,12.1664796 28.1316558,12.6569442 C28.1034056,12.6864924 28.0701122,12.711372 28.0428665,12.7417393 C27.7922023,13.0212705 27.4787439,13.2225183 27.176233,13.4374446 C27.0394511,13.5346283 26.908266,13.641252 26.7643499,13.7264362 C26.6037255,13.8215313 26.4369304,13.925411 26.2290515,13.8327526 C26.2519715,13.7260471 26.2741329,13.6228636 26.2963354,13.5195573 C26.4903352,13.3845116 26.6818953,13.2459439 26.8789498,13.1156899 C27.083528,12.9804599 27.2470635,12.7922355 27.4428879,12.6542207 C28.0003887,12.2612266 28.427996,11.7348249 28.9230101,11.2786184 C28.9806996,11.2254601 29.0160636,11.1481391 29.0615345,11.0818551 C29.084557,11.0482933 29.1031923,11.010841 29.1304175,10.9811903 C29.258302,10.8418854 29.3660956,10.6833117 29.4916839,10.5464231 C29.7364029,10.2797515 29.9215053,9.97779796 30.1135165,9.67670449 C30.2438406,9.47232379 30.3976176,9.28295271 30.5299918,9.07978014 C30.6550061,8.88789039 30.7743827,8.69122951 30.8807823,8.48854839 C31.0372245,8.19062886 31.1859993,7.88830677 31.3266969,7.58264694 C31.4563239,7.30108851 31.5594023,7.00703913 31.6952821,6.72875701 C31.85605,6.39946675 31.9732125,6.05551497 32.0921791,5.71080554 C32.1933099,5.41775953 32.313691,5.1313071 32.4136738,4.8378925 C32.5224925,4.51849262 32.6198921,4.1951202 32.7168408,3.87185017 C32.7366651,3.80568906 32.7323804,3.7322791 32.7172713,3.65569521 C32.6121018,3.8330463 32.5083264,4.01123695 32.4014758,4.1875642 C32.2097721,4.50389254 32.0177609,4.82005706 31.8229001,5.13444008 C31.692043,5.34557819 31.5600788,5.5562658 31.4209189,5.76197751 C31.3269839,5.90085237 31.2172017,6.02895633 31.1190025,6.16508727 C31.001389,6.32816592 30.8885111,6.49466421 30.7737062,6.65977008 C30.7698726,6.66529886 30.7683555,6.67254771 30.7641733,6.67770791 C30.6418446,6.82839798 30.523083,6.9821596 30.3960391,7.12877475 C30.1566503,7.4050706 29.8888064,7.6601523 29.6757613,7.95504124 C29.3459432,8.41153448 28.9188484,8.76511044 28.5143662,9.144385 C28.4496859,9.20503781 28.3870557,9.26790213 28.324569,9.33082788 C28.2247298,9.43141079 28.1379496,9.54516039 27.9893387,9.58699486 C27.9424122,9.60020251 27.9068022,9.65559273 27.867502,9.69322941 C27.7444147,9.81113584 27.6310449,9.94130798 27.4973587,10.0455358 C27.2803364,10.214778 27.0500296,10.3669424 26.825709,10.5268676 C26.6825514,10.6289453 26.5497262,10.7507629 26.3950061,10.8300907 C26.1897513,10.9353219 26.0326121,11.1021683 25.8398218,11.2245182 C25.6033647,11.3745735 25.3418146,11.4858249 25.1234187,11.6616812 C24.873308,11.8631337 24.5682345,11.958884 24.298607,12.1177649 C24.1374086,12.2126962 23.9812329,12.3172311 23.8093331,12.392914 C23.6811821,12.4493486 23.5462453,12.490364 23.4176228,12.5458566 C23.2635177,12.6123658 23.1124263,12.6860419 22.9608633,12.7582642 C22.6894932,12.8875764 22.4145355,13.006609 22.122193,13.08264 C22.0321941,13.1060452 21.947054,13.147634 21.8589412,13.178759 C21.6264408,13.2608921 21.3956214,13.3486155 21.1601073,13.4209811 C20.9943988,13.4719074 20.8208588,13.4968278 20.6530592,13.5417543 C20.5246212,13.5761147 20.4000784,13.624768 20.2730344,13.6648005 C20.2032494,13.6868132 20.1330339,13.7125733 20.0611169,13.7215217 C19.94746,13.7356713 19.8298875,13.7189416 19.7313603,13.8041873 C19.7060622,13.8260771 19.6520014,13.8121528 19.6125987,13.8209989 C19.5351054,13.8384248 19.4594777,13.8649425 19.3814923,13.8790511 C19.2884798,13.8959036 19.1934583,13.9014939 19.0999538,13.9160325 C19.0068388,13.9305097 18.9147489,13.9513348 18.8217774,13.9669178 C18.7484253,13.9792449 18.6744991,13.9882548 18.6007165,13.9979814 C18.4745541,14.0145677 18.3436765,13.9915311 18.2259194,14.0737052 C18.1823346,14.104134 18.1067068,14.0896363 18.0455732,14.0938136 C17.8450747,14.1075537 17.6471182,14.083698 17.4477062,14.1769706 C17.3222408,14.2356372 17.1522475,14.2016659 17.0021196,14.2048603 C16.7495898,14.2102662 16.4968755,14.2085461 16.2444893,14.2169826 C16.1059648,14.2216104 15.9574975,14.1786907 15.8362758,14.2955323 C15.8130893,14.3179137 15.7578805,14.3102962 15.7173297,14.3110948 C15.4169304,14.3169717 15.11649,14.3200023 14.8161317,14.3271078 C14.681646,14.3302817 14.5435316,14.3146578 14.4297107,14.4214043 C14.40144,14.4479015 14.3387688,14.4414513 14.2916168,14.4435399 C14.143662,14.4500925 13.9993358,14.4379906 13.8578182,14.522622 C13.7635757,14.5789746 13.6404475,14.5453924 13.56074,14.452775 C13.4956498,14.3770921 13.4186895,14.3588676 13.3241394,14.3635159 C13.1159325,14.3737544 12.9022109,14.3355648 12.7111017,14.4647541 C12.671453,14.4915175 12.6053787,14.4809309 12.5512769,14.484412 C12.4110714,14.4934218 12.2728545,14.4750949 12.1390658,14.5630231 C12.0551967,14.6181471 11.9332985,14.5952948 11.863288,14.4995854 C11.7920885,14.4022583 11.7021716,14.3922041 11.593148,14.4016031 C11.4642384,14.4127016 11.3339554,14.4075619 11.2043488,14.4116163 C11.1637571,14.4129063 11.1095528,14.4062923 11.0852387,14.4287965 C10.9594044,14.5453924 10.8052173,14.5096396 10.6591485,14.5247721 C10.5886255,14.5320619 10.5162164,14.5526822 10.4520487,14.5828448 C10.3317905,14.6393408 10.236564,14.6392179 10.1383648,14.5373654 C10.0592314,14.4552937 9.97484979,14.4258068 9.8650881,14.4333628 C9.74255436,14.4418198 9.61860606,14.432769 9.49660535,14.4447276 C9.42657436,14.4516078 9.35996701,14.4883435 9.29034603,14.5056056 C9.22574777,14.5216186 9.15955044,14.532369 9.09343512,14.5406213 C8.95568973,14.5578014 8.81296263,14.5211067 8.68479115,14.6273822 C8.64358439,14.6615378 8.50766358,14.6428833 8.46223364,14.5993083 C8.32823991,14.4708357 8.17556989,14.4569933 8.00809823,14.4658598 C7.92632024,14.4701805 7.84402972,14.4641397 7.76219022,14.4676618 C7.71518171,14.4697095 7.65105497,14.4646721 7.62485485,14.4918451 C7.51310458,14.6078676 7.37603572,14.5819028 7.24103745,14.58178 C7.18675113,14.5817185 7.11477255,14.570661 7.08125362,14.5996769 C6.92210532,14.7373231 6.78733256,14.6304742 6.6549379,14.5642107 C6.43771061,14.4555394 6.20670674,14.4769379 6.00016041,14.5409694 C5.86844228,14.5818005 5.74219789,14.6059223 5.60927021,14.6166932 C5.51508918,14.6242902 5.42474182,14.6199695 5.33736709,14.6816871 C5.25542508,14.7395551 5.1458274,14.7344973 5.07179874,14.6603911 C4.9469894,14.5354201 4.80030563,14.5218234 4.63896374,14.5373245 C4.54414718,14.5464162 4.44828509,14.5442047 4.35314052,14.550614 C4.31318431,14.5532965 4.26070207,14.5516788 4.23659304,14.5751864 C4.14093595,14.6685 4.02057531,14.6549237 3.90777949,14.6580772 C3.72439915,14.6632169 3.53454053,14.6715715 3.44091303,14.5104177 C3.29896497,14.5288265 3.1874402,14.5489963 3.0750954,14.5562247 C2.95957296,14.5636169 2.84306648,14.5551599 2.72731853,14.5602792 C2.6820526,14.5622859 2.61626529,14.5678966 2.59662545,14.5968101 C2.52407285,14.703577 2.42134296,14.685373 2.32047865,14.6854549 C2.20423868,14.6855368 2.09199638,14.6871955 1.98594535,14.7557728 C1.94623515,14.781451 1.86915186,14.7735264 1.81956024,14.7541961 C1.74684363,14.7258969 1.68562801,14.669401 1.61531001,14.6330748 C1.5752923,14.6123931 1.52701273,14.5983868 1.48225932,14.5979158 C1.32522261,14.5962162 1.16804239,14.6001683 1.01102618,14.6054514 C0.970946969,14.6068028 0.912662977,14.6072329 0.894601706,14.6316209 C0.805607402,14.7518003 0.67757943,14.7247502 0.558264331,14.7383879 C0.44663706,14.7511655 0.337469894,14.7405789 0.230106805,14.8190058 C0.10503096,14.9104355 -0.000835564863,14.834343 4.97106073e-06,14.6719606 C0.00137852977,14.4126606 0.0123054968,14.1533607 0.0115674652,13.8940607 C0.0111779486,13.7452545 0.0260410838,13.6087755 0.182729281,13.5222398 C0.12585985,13.4883094 0.0658537854,13.4723988 0.0447583838,13.4347416 C0.0206698543,13.391699 0.0310637985,13.3293057 0.0267381136,13.2753079 C0.016405672,13.1460982 0.065751281,13.0470715 0.184369351,12.9925823 C0.329802566,12.9257864 0.479971485,12.8692495 0.625384199,12.8023921 C0.913278004,12.6700699 1.20008526,12.5353109 1.48590848,12.3985861 C1.77121917,12.2621481 2.05927698,12.1304606 2.33774038,11.9810811 C2.56829324,11.8574206 2.78623805,11.7103754 3.01070215,11.5752683 C3.06299988,11.5437952 3.12105836,11.5218234 3.17302808,11.4898794 C3.24080398,11.4482087 3.30556625,11.4016236 3.37077954,11.355919 C3.40329393,11.3330667 3.43045759,11.2966586 3.46606761,11.2852324 C3.55899808,11.2554384 3.62462138,11.2009697 3.69682547,11.1333547 C3.79151902,11.0446689 3.92873138,11.0011349 4.04816949,10.9391101 C4.07211451,10.9267011 4.10163577,10.9230766 4.12283368,10.9075756 C4.30233935,10.7762772 4.47917991,10.6413134 4.65981313,10.5115918 C4.72434989,10.4652319 4.79706649,10.4302368 4.86611345,10.3901428 C4.88950495,10.3765871 4.91574607,10.3665943 4.93622644,10.3495984 C5.23855286,10.0985507 5.53841918,9.84453379 5.84283669,9.59606616 C5.94685814,9.51114813 6.0676698,9.44656375 6.1705432,9.36043759 C6.35810571,9.20337917 6.5380829,9.03722898 6.72111473,8.87478513 C6.89383461,8.72145353 7.06967062,8.57143919 7.23788031,8.41331598 C7.33692005,8.32020717 7.44331959,8.2258083 7.51207953,8.11142391 C7.66302748,7.86039665 7.89286281,7.68820576 8.09104478,7.48423459 C8.28506507,7.28450216 8.48679369,7.0909333 8.66654537,6.87893516 C8.89250603,6.61242731 9.09952388,6.32986551 9.31488558,6.05436826 C9.32743212,6.03829383 9.3386871,6.01877927 9.35531331,6.00864317 C9.51239102,5.91297474 9.59562458,5.75237381 9.7012451,5.61286417 C9.96297978,5.26704898 10.2238329,4.92031233 10.4752762,4.56702306 C10.6634537,4.30266529 10.8474081,4.0340483 11.0137522,3.75572524 C11.312286,3.25631225 11.5983962,2.74942517 11.8853469,2.24321383 C12.0590099,1.9368373 12.2329393,1.63007171 12.3910626,1.31562726 C12.5145393,1.07004688 12.6143581,0.812569371 12.7237098,0.559965386 C12.7905221,0.405589458 12.8470225,0.246032855 12.9242083,0.0971038035 C12.9762601,-0.00327433644 13.0912085,0.0160149756 13.1836469,0.018369828 C13.3796763,0.0233457333 13.4222771,0.102734972 13.3416267,0.280229406 C13.2058289,0.579070405 13.0782519,0.881679167 12.9386205,1.17867724 C12.8670314,1.33088261 12.751919,1.46629685 12.7009333,1.6236829 C12.6254286,1.85666994 12.5130223,2.06797186 12.3879259,2.27311021 C12.1848442,2.60616824 12.0325022,2.96740259 11.793667,3.28184704 C11.6605343,3.45712996 11.5849271,3.67486166 11.4695687,3.86509277 C11.3518936,4.05917356 11.2164444,4.24242202 11.0905485,4.43162929 C11.0499362,4.49269163 11.0187339,4.56010184 10.9768096,4.62018129 C10.8467726,4.80656273 10.7142549,4.99126506 10.5815322,5.17580357 C10.3739608,5.46442656 10.1674555,5.75384815 9.95584548,6.0394815 C9.90785293,6.1042297 9.83456229,6.1498524 9.78365862,6.21290101 C9.6498084,6.37864166 9.52190343,6.54913297 9.39149736,6.71763801 C9.3831535,6.7284089 9.37526066,6.74034698 9.36462071,6.74837396 C9.17980531,6.88767883 9.0625608,7.08992993 8.91378594,7.26007313 C8.66740641,7.5418568 8.3677451,7.77451621 8.14406004,8.0688318 C7.85272209,8.45220176 7.4808567,8.74418297 7.13732352,9.06902973 C6.91997323,9.2745981 6.69645217,9.47365479 6.47660078,9.67662258 C6.36735161,9.77745122 6.26072655,9.87383635 6.12349369,9.9458334 C5.98904894,10.0163766 5.88787712,10.1490469 5.76934105,10.251268 C5.67282292,10.3345069 5.59434557,10.4424001 5.45510362,10.4691021 C5.42232272,10.4753885 5.39786517,10.5230589 5.36879493,10.5508666 C5.14748797,10.7625576 4.87843447,10.9076575 4.62887731,11.0799508 C4.59017165,11.1066732 4.54789885,11.1292593 4.51296535,11.1601591 C4.25533084,11.3880064 3.96444391,11.5624702 3.65660275,11.7139999 C3.52500763,11.7787481 3.40817313,11.8728602 3.28246176,11.9501404 C3.02554478,12.1080998 2.77039088,12.2694174 2.50828717,12.4183669 C2.31449239,12.5285126 2.11221025,12.6242629 1.91113765,12.7210985 C1.68033879,12.8322476 1.44652629,12.937233 1.21427187,13.0453924 C1.07449689,13.1105092 0.945505381,13.1950791 0.784594004,13.2172352 C0.697998303,13.2291528 0.618577908,13.2933481 0.522387797,13.340609 C0.601623684,13.433554 0.679711521,13.4083468 0.761428014,13.3783276 C0.998684654,13.2912185 1.22333326,13.175155 1.46489508,13.0954791 C1.73638818,13.0059333 2.01698368,12.9288784 2.25532686,12.7581414 C2.26633583,12.7502782 2.2794974,12.7374596 2.29038336,12.7386473 C2.4901234,12.7603734 2.62524467,12.6126934 2.79093275,12.5466756 C2.95971647,12.4794497 3.11993081,12.391194 3.2856599,12.3160435 C3.51291211,12.2130238 3.74213241,12.1142633 3.96983564,12.0122265 C4.01284648,11.9929577 4.07510764,11.9767195 4.09023729,11.9422977 C4.1489928,11.8086649 4.28265851,11.80459 4.38665945,11.7478483 C4.61833986,11.6214644 4.84784716,11.4909646 5.07620642,11.3586834 C5.22703137,11.2713081 5.37461718,11.1782607 5.52308452,11.0868515 C5.55174475,11.0692003 5.58019997,11.049911 5.60473951,11.0271202 C5.78438869,10.8603147 5.990525,10.7357123 6.21291851,10.6346379 C6.25453529,10.6157377 6.28688567,10.5758076 6.32233168,10.5442526 C6.43291341,10.4457993 6.53121511,10.3372918 6.67588979,10.2763523 C6.76541712,10.2386337 6.82548469,10.1367403 6.91076833,10.0824353 C7.29907543,9.83517581 7.61864309,9.51034953 7.94208541,9.18925006 C7.96590743,9.16559915 7.99292758,9.13029684 8.02078827,9.12796247 C8.18998201,9.11375145 8.27419961,8.97831672 8.38492484,8.8820135 C8.56465602,8.72561035 8.74114806,8.56548039 8.91917767,8.40713193 C8.93445082,8.3935557 8.96058944,8.38442297 8.96561216,8.36824615 C9.07041263,8.03135893 9.39920569,7.89072306 9.6030254,7.64086299 C9.69242972,7.53127021 9.78937836,7.42773861 9.88454343,7.32289649 C9.92575019,7.27751951 9.96904804,7.23357592 10.014888,7.19290864 C10.1111601,7.10758108 10.2238329,7.0373041 10.2620261,6.90209462 C10.2671103,6.88407488 10.2864426,6.86970004 10.3001782,6.8545266 C10.4769778,6.65882814 10.6606656,6.46884275 10.8290598,6.26618211 C11.0106976,6.04763134 11.1778822,5.81710153 11.3517911,5.59214146 C11.3848796,5.54938554 11.4161024,5.50419285 11.454808,5.46698618 C11.6268719,5.30153221 11.7556584,5.10466656 11.8818618,4.90421743 C11.9861908,4.73853821 12.1032098,4.58084501 12.215124,4.41993693 C12.2267275,4.4032482 12.2444608,4.39055247 12.2547317,4.37324942 C12.3891765,4.14673311 12.5209356,3.91857863 12.6571229,3.69312712 C12.7829778,3.48479436 12.9172175,3.28149893 13.0408993,3.07195803 C13.2883654,2.65277384 13.5394806,2.23537115 13.7731291,1.80852857 C13.9443934,1.49557893 14.0955874,1.17122362 14.2454898,0.847195938 C14.3443245,0.63355964 14.4183942,0.40855862 14.5155479,0.194062288 C14.612886,-0.0208640595 14.8102275,-0.0552858573 15.0123046,0.103001173 C14.9003493,0.436898755 14.7609228,0.761295021 14.5953783,1.07639474 C14.4742386,1.30698597 14.3841987,1.55389736 14.26269,1.78426335 C14.0334698,2.21884623 13.7909034,2.64638502 13.5553278,3.07760968 C13.4779575,3.21922845 13.4094436,3.36580265 13.3286496,3.50533277 C13.2687461,3.6087415 13.1908222,3.70158411 13.1291351,3.80407138 C12.9698638,4.06859296 12.8283667,4.3448069 12.6551548,4.59970431 C12.4480345,4.90454506 12.2131765,5.19048557 11.9944526,5.48766793 C11.840327,5.69706549 11.700101,5.91692679 11.5406452,6.12204467 C11.4088246,6.29163499 11.2337266,6.43149274 11.1220788,6.61187443 C11.0009391,6.8076548 10.7943108,6.93123336 10.704353,7.1479412 C10.6898793,7.18279302 10.6501282,7.20773398 10.6204634,7.23560314 C10.4730621,7.37412989 10.3237747,7.50544874 10.2058742,7.67778298 C10.1006842,7.83150364 9.93185945,7.94072783 9.79749671,8.07593731 C9.72182798,8.15211167 9.66104288,8.2428042 9.59000734,8.32385207 C9.5188078,8.40504328 9.44721874,8.48662356 9.36888489,8.56072974 C8.99810604,8.91145939 8.6250516,9.25977277 8.25244818,9.60855711 C8.22764212,9.631778 8.20281555,9.66339446 8.17276127,9.67129857 C7.93308553,9.73426527 7.8084607,9.94497336 7.63323971,10.0892951 C7.51349409,10.1878917 7.41849303,10.3169786 7.26260437,10.3675772 C7.25048835,10.3715088 7.24122196,10.3841431 7.2305,10.3925796 C6.98596555,10.5850837 6.74442422,10.7815602 6.49566659,10.9684946 C6.3625134,11.0685451 6.21792072,11.1537088 6.07673119,11.2427427 C5.93004742,11.3352372 5.76214524,11.4040808 5.63858646,11.5204105 C5.50633531,11.644931 5.3564739,11.7211668 5.19976521,11.7991636 C5.09242262,11.8525676 4.98698661,11.9178072 4.89698777,11.9963569 C4.73921302,12.1340646 4.54306064,12.1929768 4.36378048,12.2868433 C4.17308133,12.3867095 3.99349365,12.5078308 3.80211797,12.6062022 C3.55561544,12.7329137 3.30976893,12.8680413 3.04918229,12.9575462 C2.87672892,13.0167656 2.70724818,13.0772751 2.54426621,13.1575243 C2.48194355,13.1881988 2.41824733,13.2205115 2.43965024,13.3089516 C2.37962367,13.2668304 2.32423031,13.2571653 2.28523764,13.3535095 C2.33595681,13.3374965 2.38667598,13.321463 2.43737464,13.30545 C2.79646799,13.1759536 3.15070263,13.0299732 3.51637676,12.9229401 C3.75342839,12.8535436 3.95001129,12.7001506 4.1794981,12.6361396 C4.43616907,12.5645316 4.66696793,12.4385572 4.91484403,12.3511205 C5.14205524,12.2709941 5.34364035,12.1343308 5.5716716,12.0496994 C5.73965578,11.987388 5.88012778,11.8550043 6.04278174,11.7736083 C6.33983943,11.6249864 6.59866299,11.4188652 6.87819244,11.2443194 C7.02649578,11.151743 7.17953482,11.0666202 7.32613659,10.9715252 C7.48926206,10.8657206 7.64732381,10.7521758 7.80794818,10.6425625 C7.86899979,10.6008714 7.93085093,10.5604089 7.99272257,10.5199259 C8.02109579,10.5013738 8.05231862,10.4866304 8.07892876,10.4659281 C8.27495814,10.3132313 8.47094651,10.1604116 8.66537682,10.0056876 C8.80789891,9.89226563 8.94406573,9.77405204 9.09894985,9.67291625 C9.28466729,9.55161064 9.43413918,9.37473052 9.59851521,9.22107128 C9.84696532,8.98884189 10.0820899,8.74021044 10.3461412,8.52735226 C10.6498616,8.28248858 10.8994393,7.9849581 11.1860006,7.72416333 C11.3200763,7.6021615 11.4248358,7.44858418 11.5497066,7.31572955 C11.6650035,7.19309294 11.8087352,7.09906266 11.887725,6.94014084 C11.9192964,6.87662126 11.992874,6.83493014 12.0427937,6.77925324 C12.1007907,6.71458694 12.1541134,6.64572287 12.2088508,6.57816933 C12.2343539,6.54671669 12.2576429,6.51348256 12.2832279,6.4821323 C12.4496336,6.27836591 12.6153831,6.07404664 12.7833878,5.87159077 C12.9005298,5.73044297 13.0274098,5.59687165 13.1383195,5.45111653 C13.289575,5.25236699 13.4366687,5.0497473 13.5730816,4.8406569 C13.7722681,4.53536565 13.9425074,4.2098841 14.1567415,3.91599853 C14.6820765,3.19541372 15.0622857,2.39331007 15.4835377,1.61440683 C15.6668156,1.27559477 15.8249798,0.923185999 15.9918775,0.575671227 C16.0531751,0.448099662 16.1009011,0.313852602 16.1652739,0.188001103 C16.2527716,0.0169569166 16.31942,-0.013369486 16.5043994,0.019250338 C16.554852,0.0281373459 16.6028651,0.050907744 16.6580944,0.0693370231 C16.5899495,0.248551523 16.5365652,0.413616433 16.4654272,0.570695321 C16.3350416,0.858683522 16.1832121,1.13731374 16.0604939,1.42833254 C15.9086439,1.78837922 15.7280722,2.13263815 15.5405097,2.47435794 C15.4075,2.71664153 15.3067382,2.98106073 15.1457858,3.20239637 C14.9649476,3.4510483 14.8662153,3.74329571 14.6931674,3.98623456 C14.5095411,4.24399875 14.3604587,4.52434904 14.1623178,4.77148567 C14.1289218,4.81313584 14.1061454,4.86309966 14.0755991,4.9072685 C13.9495392,5.08941121 13.8233768,5.27149249 13.6952873,5.45220181 C13.6138783,5.56703669 13.5292712,5.67959863 13.4455661,5.79277488 C13.4057329,5.84664981 13.3648952,5.89978756 13.3239754,5.95288436 C13.266901,6.02694959 13.2093345,6.10062575 13.1520346,6.17452716 C13.1355314,6.19580274 13.1208732,6.21871648 13.1027095,6.2384358 C12.9562717,6.3971119 12.8029457,6.54993157 12.6641752,6.71499648 C12.5397144,6.8630655 12.4312648,7.02454694 12.3151683,7.17968052 C12.2951185,7.20648488 12.2744946,7.23355544 12.250324,7.25648966 C11.8730054,7.61504152 11.5581325,8.03428714 11.1596979,8.37289443 C11.0958172,8.42717889 11.0642253,8.51770761 11.0062899,8.58106337 C10.892469,8.70552244 10.7731129,8.82525132 10.6513992,8.9421339 C10.5140638,9.07402611 10.3757649,9.20559069 10.2298807,9.32775633 C10.1385493,9.40421736 10.0666732,9.51182387 9.9306294,9.52886072 C9.89645444,9.53311993 9.86586713,9.57567109 9.83609986,9.60329453 C9.70657532,9.72345343 9.57846535,9.84510715 9.44892031,9.96520462 C9.33126578,10.074265 9.24126694,10.2211259 9.06301182,10.2487084 C9.05157233,10.2504899 9.04240844,10.2656838 9.03180948,10.2741817 C8.81622227,10.4471712 8.60483774,10.6257919 8.38363328,10.7913278 C8.17954706,10.9440655 7.96557941,11.083739 7.7546254,11.2271597 C7.64951741,11.2986653 7.54004273,11.3637821 7.43483223,11.4351649 C7.19515649,11.5977521 6.96903182,11.7849321 6.71537448,11.9211859 C6.29535253,12.1468217 5.90206372,12.4248991 5.44401264,12.5798483 C5.32424653,12.6203723 5.22161914,12.7089352 5.10474364,12.7611925 C4.95221713,12.8294217 4.79134675,12.8788122 4.63783619,12.9449324 C4.49611363,13.0059742 4.35715869,13.0744902 4.22195541,13.1487397 C4.19085559,13.165838 4.18003112,13.2197539 4.15928424,13.2562438 C3.96967163,13.1832025 3.8378305,13.2935529 3.6741105,13.3956101 C3.77895198,13.4025314 4.06641527,13.3104669 4.15526606,13.2530699 C4.36255042,13.2193648 4.55365959,13.1379074 4.74772089,13.0618149 C4.95432872,12.9807875 5.17100248,12.9252745 5.37732329,12.8435713 C5.59690818,12.7566056 5.80958427,12.6521935 6.02506898,12.5548869 C6.05573829,12.5410445 6.08735064,12.5077694 6.11471931,12.5114757 C6.34303757,12.5424779 6.51594196,12.4017601 6.69985532,12.3144462 C7.01618384,12.1642886 7.31933029,11.9862208 7.6260234,11.8162414 C7.70808841,11.770762 7.78086652,11.7087987 7.86174248,11.6608007 C7.91869391,11.6270137 7.9861828,11.6104478 8.04194518,11.5751045 C8.23596547,11.4520993 8.42660312,11.3237906 8.61910635,11.1984101 C8.73202517,11.1248772 8.8472811,11.054846 8.95925688,10.9799002 C9.0649799,10.9091523 9.16641824,10.8319541 9.27234627,10.7614928 C9.35617435,10.7057545 9.44889981,10.6625071 9.52899673,10.6021819 C9.73982775,10.443383 9.93210546,10.2547286 10.1579226,10.1225088 C10.3745759,9.99567436 10.5246833,9.79577811 10.7254074,9.6648688 C11.2025243,9.35365971 11.5810524,8.93658464 11.9943091,8.55659339 C12.249791,8.32172246 12.5001067,8.08122037 12.7525545,7.84303218 C12.7773606,7.81964747 12.8152872,7.79890429 12.822934,7.7704413 C12.8715621,7.58975245 13.032699,7.50929841 13.149718,7.38899617 C13.2620833,7.27350602 13.4056714,7.18408307 13.4655545,7.022274 C13.4744314,6.9982545 13.4978024,6.97808468 13.5178932,6.9599216 C13.8520985,6.65794763 14.0870795,6.27267331 14.3812261,5.93809999 C14.5653855,5.72862051 14.7326316,5.50943496 14.892436,5.28308245 C15.0523223,5.05662757 15.1964435,4.81831651 15.3664572,4.59997051 C15.5406327,4.37630049 15.6808382,4.13178491 15.8319296,3.89460009 C16.016704,3.60454372 16.1534859,3.2821542 16.3528364,3.00362636 C16.6035211,2.65334719 16.7797261,2.26455084 16.9930172,1.89543285 C17.0901094,1.72743974 17.1473683,1.53694242 17.2307249,1.36043088 C17.3117034,1.18899763 17.4174059,1.02800764 17.4861658,0.852253752 C17.5744221,0.626638422 17.712352,0.423199658 17.7651622,0.181059408 C17.8009773,0.0168340547 18.0707278,-0.0593607757 18.1902889,0.0538359517 C18.2658551,0.125402985 18.2399215,0.220928082 18.2034095,0.302385495 C18.0848939,0.566988989 17.9625037,0.82991337 17.8381044,1.0918139 C17.6883455,1.40711839 17.514826,1.71302395 17.3904472,2.03782975 C17.3103503,2.2470635 17.220741,2.44962175 17.1004008,2.63289069 C16.8886883,2.95532117 16.7314466,3.30768899 16.530128,3.63288385 C16.3220851,3.968952 16.1180808,4.30749785 15.9112475,4.64434412 C15.8271324,4.78135557 15.7154846,4.9013097 15.6194585,5.03129755 C15.5522362,5.12233819 15.4876379,5.21552891 15.4264428,5.3107059 C15.2371377,5.60512387 15.0312474,5.88602703 14.7967584,6.14729278 C14.6996867,6.25547265 14.6341249,6.39131691 14.5474062,6.50961241 C14.5078805,6.56356924 14.448428,6.60251645 14.4040436,6.65350412 C14.3293384,6.73936409 14.2621365,6.83179716 14.1866318,6.91685852 C14.132817,6.97747037 14.0624375,7.02438313 14.0134609,7.08812795 C13.8356568,7.31957922 13.6066005,7.50950318 13.4367097,7.74068825 C13.2530014,7.99067118 13.0249496,8.18499769 12.8064718,8.39427239 C12.5852059,8.6062091 12.3625458,8.8167329 12.1392093,9.02649905 C11.8763471,9.273349 11.6133208,9.5200761 11.348019,9.76428452 C11.1989366,9.90150074 11.0643689,10.0539518 10.8713941,10.1415933 C10.7827278,10.1818715 10.7199541,10.2762499 10.6401852,10.3394828 C10.52905,10.4275543 10.4128715,10.5092369 10.2991532,10.5940526 C10.2555478,10.6265495 10.2102819,10.6574493 10.1700386,10.6938164 C10.1051329,10.7524625 10.0530401,10.8284525 9.9517658,10.8307255 C9.93372503,10.8311555 9.91289614,10.8453665 9.89877104,10.8588813 C9.77275215,10.979716 9.64548271,11.0933427 9.48801548,11.1798374 C9.32513602,11.2693014 9.19073228,11.4088724 9.03381857,11.5111754 C8.84416496,11.6348359 8.64395341,11.742381 8.44817004,11.8566425 C8.4424913,11.8599598 8.43269188,11.8580963 8.42877621,11.8623146 C8.24738446,12.0588117 7.96072071,12.0814797 7.76805347,12.2713627 C7.66850122,12.3694474 7.50781535,12.4059579 7.37425214,12.4691908 C7.00884452,12.6422007 6.64591751,12.8208624 6.27645072,12.9847396 C6.08019583,13.0717872 5.8711279,13.1296961 5.67034232,13.207181 C5.5856327,13.2398623 5.50729885,13.2891503 5.38712271,13.3509089 C5.4569077,13.3679662 5.48382535,13.3843069 5.50252215,13.3776723 C5.87617111,13.2448586 6.2477905,13.1062909 6.6221775,12.9756274 C6.84494002,12.8978967 7.07399631,12.8379606 7.2960413,12.7583871 C7.45465658,12.7015225 7.60794163,12.6288498 7.76075516,12.5571599 C8.10309929,12.3965589 8.44667348,12.2381286 8.78389239,12.0672072 C8.99896708,11.9581878 9.24487509,11.9002789 9.41292077,11.7073244 C9.42915747,11.6886698 9.45980628,11.6821582 9.48426382,11.6710801 C9.72379606,11.5624088 9.94787064,11.4307623 10.1503988,11.2600867 C10.2474704,11.1782812 10.3633209,11.117956 10.4732876,11.0522249 C10.7053575,10.9134525 10.9398875,10.7787344 11.1715474,10.6392862 C11.2113601,10.6153486 11.2415989,10.5757666 11.2770859,10.5443345 C11.3829935,10.4504066 11.4698147,10.3331554 11.6161499,10.2896828 C11.6588328,10.2770075 11.6949348,10.2368522 11.7299913,10.2048876 C11.8550056,10.0908923 11.9820291,9.98533348 12.133223,9.90043594 C12.2660687,9.82587927 12.3631609,9.68985071 12.4825785,9.58863301 C12.564213,9.51944131 12.6571844,9.46364155 12.7448052,9.40143249 C12.7836953,9.37382953 12.8248201,9.34837665 12.8598971,9.31641209 C13.1669592,9.03655324 13.4749644,8.75763634 13.7783774,8.47382545 C13.9467305,8.31633702 14.1115986,8.15448699 14.2691478,7.98626863 C14.3845473,7.86301771 14.4811679,7.72236135 14.5943327,7.59683749 C14.6669878,7.51621963 14.7626244,7.45605827 14.833865,7.37443704 C15.033482,7.14564778 15.2258007,6.9104697 15.4210101,6.67781029 C15.4429255,6.65166119 15.4625243,6.62305486 15.4870639,6.59967015 C15.7684794,6.33168796 15.9886178,6.01482722 16.2136764,5.70122232 C16.3081855,5.56951441 16.4193617,5.44984695 16.519611,5.3220911 C16.6158626,5.19949544 16.7144718,5.07792362 16.800145,4.94803816 C16.9642955,4.69924289 17.1225008,4.44641366 17.2784714,4.19239677 C17.4305674,3.94468678 17.5667548,3.68671783 17.7277481,3.4450895 C18.0404685,2.97579815 18.2809438,2.46682241 18.555266,1.97656264 C18.7174279,1.68671103 18.8706925,1.39102349 19.011267,1.09019622 C19.1253134,0.846131136 19.2136722,0.590148449 19.3153155,0.340206471 C19.3383585,0.283567154 19.3664037,0.228443132 19.3972165,0.175571578 C19.4798965,0.0337889915 19.6346371,-0.0175672662 19.7843345,0.0423893217 C19.8679986,0.0758487017 19.8747024,0.142869847 19.8493428,0.211201518 C19.8050814,0.33045943 19.7433123,0.443471865 19.7023105,0.563692195 C19.5974486,0.871358771 19.4103371,1.1419825 19.2958192,1.44176543 C19.0516742,2.08093379 18.6928884,2.66016603 18.3705531,3.25700847 C18.227129,3.52253343 18.0805272,3.78998322 17.9237365,4.04905793 C17.7538048,4.32983823 17.5512766,4.59085826 17.3654977,4.86221915 C17.1647121,5.15553137 16.9679037,5.45156702 16.7673231,5.74502257 C16.6498941,5.91686536 16.530046,6.08711095 16.4077172,6.2555136 C16.3804101,6.29312981 16.3377272,6.3194632 16.3029783,6.35189873 C16.2633911,6.38881872 16.2014579,6.42078328 16.1899364,6.46538214 C16.1488527,6.62461111 16.0077451,6.69611671 15.9150197,6.80921105 C15.7454159,7.01611043 15.5803224,7.22671613 15.4093861,7.43248927 C15.3574983,7.49494405 15.2933511,7.54744702 15.2334065,7.60300106 C15.0887524,7.73706382 14.9360823,7.86250578 14.8462885,8.04636856 C14.8207239,8.09868723 14.765023,8.13710204 14.7208026,8.17946891 C14.4754686,8.41448317 14.2320207,8.6515656 13.9829966,8.88260733 C13.6390124,9.20172054 13.3067342,9.53660102 12.9383949,9.825224 C12.6978377,10.0137146 12.4648452,10.2074268 12.2361989,10.4093912 C12.1013647,10.5285058 11.9357586,10.6124409 11.7866352,10.7160134 C11.69842,10.7772806 11.6159654,10.8467999 11.5296567,10.9109133 C11.4925912,10.9384344 11.453168,10.9630272 11.4133143,10.9864734 C11.3621031,11.0165745 11.2978943,11.0334475 11.2593732,11.0747291 C11.101701,11.243787 10.8986398,11.3423223 10.704845,11.458181 C10.5557626,11.5472763 10.4252745,11.6670871 10.2777297,11.7591925 C10.062655,11.8934601 9.83999503,12.0156053 9.62000012,12.1419277 C9.48524786,12.2193102 9.35234068,12.3006038 9.21352925,12.3700003 C8.8636613,12.5448737 8.51135374,12.7148531 8.15904618,12.884812 C8.06878083,12.9283665 7.9721807,12.9592867 7.88371942,13.0059538 C7.82356985,13.0376726 7.77252266,13.0866945 7.71739581,13.1279761 C7.7241611,13.1437843 7.73092639,13.1595925 7.73769167,13.1753803 C7.77760688,13.1722473 7.82108924,13.178288 7.85680177,13.1644046 C8.0517036,13.0886807 8.23959413,12.9900431 8.43962118,12.9336086 C8.69366803,12.8619392 8.93557837,12.7605577 9.17634066,12.6595243 C9.5376481,12.5078308 9.88776207,12.3295173 10.2424477,12.162159 C10.3706807,12.1016495 10.5012918,12.0453378 10.6255066,11.9773952 C10.7788532,11.8935215 10.9245119,11.7956211 11.0776124,11.7112559 C11.1894652,11.6495998 11.3113634,11.6059429 11.4226422,11.5434266 C11.5387796,11.4781665 11.6491768,11.4021969 11.7592666,11.3268417 C11.9874208,11.1706638 12.2121924,11.0095509 12.4412282,10.854704 C12.6247315,10.730634 12.8164967,10.6184611 12.997294,10.4907257 C13.1784602,10.3627446 13.3498475,10.221044 13.5269546,10.0872474 C13.6511694,9.99340141 13.7781313,9.90317985 13.9031662,9.81041915 C13.9468741,9.77798362 13.9899054,9.74429899 14.0308866,9.70852571 C14.2559863,9.5120696 14.4671248,9.30342968 14.7179325,9.13218073 C14.9738654,8.95740973 15.1867055,8.71979489 15.419124,8.51049971 C15.4797041,8.45592857 15.5447328,8.4062719 15.6044519,8.35084072 C15.653982,8.30484943 15.7187033,8.26170444 15.7421563,8.20342697 C15.8493964,7.93679625 16.0891746,7.79020158 16.2729445,7.59296734 C16.3600937,7.49940803 16.4373205,7.39669552 16.5209436,7.29975751 C16.5698792,7.24305676 16.6195938,7.18643792 16.6741671,7.13526595 C16.7971519,7.01991914 16.9477308,6.92930852 17.0020991,6.75443514 C17.0076549,6.73655874 17.0278482,6.72314632 17.0414403,6.70778859 C17.2072514,6.52003519 17.3774702,6.33590621 17.537295,6.14319739 C17.6317425,6.02932492 17.7064272,5.89937802 17.7959546,5.78116444 C17.8940513,5.65166804 18.005166,5.53175486 18.099634,5.3998217 C18.2768026,5.15231648 18.4477389,4.90028585 18.6181217,4.6480095 C18.7582657,4.44047534 18.8998242,4.23347358 19.0299638,4.01967347 C19.198317,3.74311142 19.3579983,3.4611844 19.5177001,3.17946216 C19.7751912,2.72530329 20.0432811,2.27636605 20.2810093,1.81200965 C20.4648611,1.45290491 20.6072602,1.07274984 20.7719438,0.703672808 C20.8270911,0.580155685 20.8954615,0.462617838 20.9550781,0.341005073 C20.9785311,0.293129902 20.9996675,0.242940832 21.0130136,0.19154362 C21.04725,0.0597947519 21.0714206,0.0320279715 21.2046147,0.0305331522 C21.2966637,0.0295297803 21.3994346,0.011264317 21.466862,0.114652573 C21.3815373,0.423977783 21.2587371,0.718395755 21.1198846,1.01111414 C20.9963463,1.27166319 20.8444759,1.52479958 20.7513404,1.79194221 C20.6096178,2.19843068 20.391796,2.56122128 20.1840811,2.92747248 C20.0385044,3.18413091 19.9269796,3.46626269 19.7512256,3.69675154 C19.5734215,3.92992288 19.4848167,4.20982267 19.2911245,4.4325917 C19.1569462,4.58692668 19.0777513,4.7884406 18.9700397,4.96648792 C18.9144209,5.05845002 18.8544558,5.14844633 18.7890785,5.23367151 C18.6129555,5.46330033 18.4296366,5.68748227 18.2556662,5.91870829 C18.1631253,6.04167253 18.0839099,6.17465002 17.9991387,6.30340925 C17.9917789,6.31458968 17.9912664,6.3331623 17.9816925,6.33959207 C17.8251068,6.44484373 17.7458914,6.61541695 17.6276219,6.75279698 C17.5271266,6.8695567 17.4043468,6.96198978 17.3332498,7.10985403 C17.2893164,7.2012223 17.1626825,7.2499575 17.1061411,7.33876615 C16.9543116,7.57736388 16.7310775,7.74736374 16.5473487,7.95459075 C16.3638043,8.16159251 16.1908795,8.37975422 15.992472,8.57150063 C15.6551096,8.89755553 15.3013464,9.20665549 14.9546561,9.52306573 C14.8792949,9.59182742 14.8147171,9.67987842 14.7277934,9.72705738 C14.4621636,9.87123577 14.2677948,10.0991855 14.0370369,10.2837035 C13.8950683,10.3972483 13.7497991,10.5072097 13.6007373,10.6112123 C13.419653,10.7375552 13.2304299,10.8522877 13.0495097,10.9788354 C12.8793524,11.0978681 12.7186666,11.2304361 12.5479558,11.3485473 C12.3394414,11.4928485 12.132362,11.6419004 11.9109935,11.7642504 C11.6072936,11.9321001 11.3238074,12.1382214 10.9949939,12.2597318 C10.8607542,12.4229333 10.6632487,12.4811084 10.4822055,12.565453 C10.1714532,12.7101843 9.85947086,12.852315 9.5469145,12.9931147 C9.45513208,13.0344372 9.35703538,13.0622654 9.26677003,13.1063524 C9.20846553,13.1348563 9.15916093,13.1816872 9.11748265,13.2472749 C9.15044806,13.2390841 9.18398749,13.2327158 9.21629687,13.2224568 C9.46571053,13.1433952 9.7152677,13.0647227 9.96384082,12.983081 C10.0206692,12.9644264 10.0726185,12.9312742 10.1289549,12.9106744 C10.4061062,12.8093133 10.6866812,12.7166755 10.9607164,12.6075946 C11.161338,12.527714 11.3547638,12.4293016 11.5495016,12.3352304 C11.781059,12.2233851 12.0128009,12.1115194 12.2401761,11.9915448 C12.3711152,11.922476 12.4915169,11.8337902 12.6202419,11.7601959 C12.8246971,11.6432929 13.0538559,11.5579858 13.2327875,11.4110225 C13.454074,11.2292689 13.7438539,11.1612853 13.9402728,10.9424888 C14.0183606,10.8555231 14.1380857,10.8054569 14.2400161,10.740381 C14.4154216,10.6284334 14.5984739,10.5271338 14.7660071,10.4045791 C15.0008241,10.2327773 15.2235046,10.0444915 15.4533194,9.86574794 C15.5162571,9.81678749 15.5881332,9.77943748 15.6524239,9.73205376 C15.7394707,9.66783796 15.8278909,9.60421599 15.9071883,9.53109271 C16.0325512,9.41554113 16.1486272,9.28997631 16.2726985,9.17297086 C16.3998244,9.05309864 16.5394354,8.95186047 16.6900758,8.85934549 C16.8326184,8.77178594 16.9713478,8.65525146 17.0673124,8.52000103 C17.2263787,8.295901 17.4277178,8.11523263 17.6124307,7.91767076 C17.7427138,7.77834541 17.8944203,7.6585551 18.0203366,7.51576914 C18.2166735,7.29314345 18.3990493,7.05825205 18.5879444,6.82903277 C18.6095933,6.80278128 18.63688,6.7811576 18.6583854,6.7548242 C18.8380346,6.53481957 19.0172943,6.31450777 19.1959594,6.09370453 C19.3025434,5.96197614 19.4129817,5.83295071 19.5125544,5.6960826 C19.6754544,5.47206447 19.831056,5.24272233 19.9894663,5.01544837 C20.1292618,4.81491734 20.2690163,4.61436583 20.4080532,4.41334334 C20.4465333,4.35768692 20.4840294,4.30125237 20.5192089,4.24348682 C20.7327666,3.8929005 20.9501169,3.54448474 21.1566427,3.18978255 C21.2655433,3.00276633 21.3521595,2.80293151 21.4545204,2.61192227 C21.5120664,2.50456148 21.585029,2.40549387 21.6440305,2.2988293 C21.7024375,2.19327048 21.7523367,2.08298148 21.8054134,1.97451494 C21.9034691,1.77418868 22.0022423,1.57421052 22.0986785,1.37308565 C22.2209457,1.11810634 22.3675884,0.870519215 22.4525236,0.603478961 C22.5047803,0.439274085 22.5986948,0.299805396 22.6528581,0.140125932 C22.6670242,0.098455284 22.7216796,0.0503548656 22.7645674,0.0424917066 C22.8770967,0.021871391 22.9942387,0.0177964726 23.1007613,0.107485631 C23.023555,0.296692896 22.9460822,0.481702381 22.872525,0.668268116 C22.7860933,0.887412721 22.7067959,1.10944458 22.6171456,1.32725818 C22.5633718,1.45792177 22.4991016,1.5846333 22.4337653,1.71011621 C22.1880213,2.18206957 21.9467055,2.6565416 21.6903215,3.12269998 C21.5067157,3.4564747 21.3207932,3.789287 21.1060465,4.10590202 C20.9595063,4.32199555 20.8495191,4.56247717 20.7101336,4.78383328 C20.5805886,4.98952452 20.4332488,5.18401484 20.2945808,5.38401347 C20.1420133,5.60410002 19.9933205,5.82697143 19.8372473,6.04453931 C19.7427178,6.1762677 19.6411359,6.30342973 19.5360279,6.42696733 C19.3832554,6.60652994 19.2240866,6.78066615 19.0684439,6.95781247 C19.0325879,6.99864357 18.9991305,7.04164522 18.9659601,7.08472878 C18.9132318,7.15318331 18.8677814,7.22839524 18.8083698,7.29031762 C18.6877837,7.41596435 18.5435395,7.51370096 18.4643446,7.6837213 C18.4152655,7.78901391 18.3012397,7.86344772 18.2190311,7.95418121 C18.0837869,8.10339694 17.9287387,8.22896176 17.8162914,8.40651762 C17.7100764,8.57432645 17.5338509,8.69884694 17.3845635,8.8382542 C17.1559992,9.05170621 16.9392639,9.28237935 16.6878617,9.46501351 C16.542531,9.5705928 16.3873394,9.6636197 16.2550882,9.78783304 C16.146085,9.89021793 16.0528266,10.0202467 15.9261926,10.090708 C15.6700957,10.2331868 15.4841528,10.4643104 15.2224796,10.600769 C15.0399193,10.695946 14.8860807,10.845776 14.718404,10.9698665 C14.5841233,11.0692413 14.4507241,11.1700085 14.3126917,11.2639364 C14.1372247,11.3833172 13.9591336,11.4990121 13.7790949,11.6113693 C13.6381104,11.6993383 13.4917136,11.7786047 13.3490275,11.8639118 C13.1822119,11.9636142 13.021649,12.0748861 12.8498722,12.1648415 C12.4581824,12.3699593 12.085743,12.6120791 11.6688167,12.7692604 C11.4618193,12.8473186 11.2627148,12.9459562 11.0581571,13.0307923 C10.9890486,13.0594396 10.9622335,13.1015403 10.9775271,13.1721039 C10.8071444,13.1040385 10.670875,13.1665342 10.5556806,13.3079892 C10.6955171,13.2619569 10.8353126,13.2159042 10.9751285,13.169872 L10.9751285,13.169872 Z" id="Fill-1"></path>
                            <path d="M0.184768078,12.7679441 C0.142803422,12.7119323 0.0823062547,12.664866 0.0708669395,12.607931 C0.0539744741,12.5235645 0.0456102436,12.4184963 0.0824907598,12.3477327 C0.118161743,12.2792466 0.210701293,12.2333292 0.286860891,12.1943877 C0.509394523,12.0806407 0.74156342,11.9849283 0.959566427,11.8634464 C1.11643675,11.7760434 1.2563121,11.658152 1.40463369,11.555115 C1.43727059,11.5324435 1.4740076,11.5157631 1.50816154,11.4951434 C1.62915588,11.4221024 1.74783365,11.344999 1.87104204,11.2759384 C2.14697964,11.1212802 2.37541744,10.8913243 2.67288064,10.7711349 C2.69172065,10.763523 2.71119619,10.7553162 2.72714563,10.743129 C2.92062996,10.5950774 3.11222824,10.4444406 3.30725011,10.2984202 C3.38254869,10.2420392 3.47061912,10.2021949 3.54353963,10.1432492 C3.69686335,10.0192847 3.84174084,9.88485643 3.99467506,9.76035848 C4.07226969,9.69718624 4.15986861,9.64634479 4.24281389,9.58969699 C4.27657832,9.56665626 4.31296683,9.54632378 4.34295915,9.519036 C4.67525281,9.21659298 5.00652144,8.91302152 5.33803607,8.60971679 C5.46331502,8.49508758 5.58560089,8.37699098 5.71424194,8.26628054 C6.0249075,7.99883975 6.22304546,7.62487402 6.55615914,7.37916087 C6.70833483,7.09144915 7.00452699,6.9290971 7.17769526,6.6549472 C7.2879883,6.48036694 7.45039377,6.33908598 7.58678403,6.18059115 C7.72811493,6.01637204 7.87024534,5.85256328 8.00479055,5.68282506 C8.1772208,5.46532296 8.34671947,5.24517415 8.50941195,5.02032692 C8.63186183,4.85110163 8.74106834,4.67227432 8.85726554,4.4984532 C8.93957531,4.3753299 9.01138879,4.24211217 9.11044752,4.13413052 C9.20985475,4.02575903 9.27254548,3.90279987 9.33710176,3.77518332 C9.38876318,3.67309008 9.46266772,3.58226075 9.52697799,3.48660989 C9.57613835,3.41348683 9.63325292,3.34459031 9.67359803,3.26695349 C9.78620764,3.0504157 9.91308563,2.84423906 10.0444533,2.63802138 C10.2389421,2.33272648 10.4446038,2.02964743 10.562687,1.67716314 C10.6265463,1.48660003 10.7554538,1.31883146 10.8424787,1.13481332 C10.9636166,0.878677463 11.0724541,0.616673711 11.1878723,0.357768044 C11.2210012,0.283434481 11.2536176,0.208054545 11.2954797,0.138604059 C11.3473667,0.0524936636 11.4227882,0.00458616451 11.5305392,0.000585324113 C11.7485217,-0.00753945946 11.7977026,0.0682713367 11.7096321,0.268600596 C11.6266868,0.457214574 11.559117,0.652558171 11.4815223,0.843593171 C11.4613088,0.893367729 11.4267858,0.937130768 11.4023697,0.985448609 C11.2173726,1.35153576 11.0406577,1.7220341 10.8470299,2.08346387 C10.5986245,2.54708946 10.3545448,3.01483899 10.072539,3.45782435 C9.94943313,3.65117779 9.86818939,3.87618916 9.71543969,4.04026465 C9.55211169,4.21576818 9.4835988,4.44398022 9.32166484,4.61907341 C9.1824865,4.76958707 9.0953796,4.96739273 8.97787036,5.13922369 C8.88350626,5.27718088 8.75705878,5.39693936 8.68276473,5.54396512 C8.58592006,5.7356977 8.39448579,5.83998627 8.29407402,6.03106231 C8.21225627,6.18676681 8.06317616,6.30707926 7.94380137,6.44298473 C7.93933225,6.44807298 7.93279257,6.45145831 7.92869245,6.45677224 C7.80193746,6.62070411 7.67505947,6.78459495 7.54898099,6.94906027 C7.52866493,6.97558892 7.51570857,7.00855994 7.49280944,7.03223671 C7.2481147,7.2855412 7.00036537,7.53589122 6.75761819,7.79104226 C6.69357442,7.85837948 6.64595161,7.94106351 6.58703299,8.01365312 C6.5403942,8.07114212 6.49152085,8.12770785 6.43766587,8.17830309 C6.05615036,8.53679891 5.67414283,8.89480231 5.29018775,9.25067193 C5.01043704,9.50998794 4.75241693,9.80350601 4.43845078,10.0119806 C4.16122165,10.1960397 3.92862224,10.4315148 3.6480105,10.6115732 C3.41262302,10.7626203 3.19960165,10.9555224 2.95714147,11.103656 C2.86601646,11.1593395 2.77950407,11.2225528 2.6896911,11.2804316 C2.46957653,11.422246 2.26061428,11.5876141 2.03721962,11.7153538 C1.73493879,11.8882516 1.452318,12.0925612 1.14884814,12.2643922 C0.83736256,12.4407779 0.519050289,12.596626 0.184768078,12.7679441" id="Fill-3"></path>
                            <path d="M0.0625107147,11.8550272 C0.0618942821,11.7155084 0.0469149698,11.5857182 0.0666819087,11.4613761 C0.0769557855,11.3967984 0.13746892,11.3261379 0.194838248,11.2859535 C0.310789221,11.204786 0.440301712,11.1428914 0.56371152,11.0721694 C0.593094807,11.0553337 0.624779443,11.0391944 0.648101144,11.0155795 C0.830893959,10.8304487 1.05338503,10.7050211 1.28093086,10.5850619 C1.33359475,10.5572893 1.37134097,10.5024607 1.41878574,10.4634643 C1.53266139,10.3698032 1.62288657,10.2413033 1.78572752,10.2186305 C1.81048756,10.2151692 1.83454898,10.1940734 1.85536386,10.1768486 C2.15829939,9.92615712 2.46534447,9.68011492 2.7619102,9.42209114 C3.12190684,9.10887018 3.47549258,8.78819402 3.82690026,8.46540828 C4.05812413,8.25303738 4.31558749,8.05645759 4.49688032,7.80640105 C4.66835132,7.56986219 4.89004103,7.39536127 5.08088857,7.1856939 C5.31745485,6.92582681 5.54518561,6.6575214 5.76765614,6.38548839 C5.96442142,6.14489423 6.14591973,5.8919703 6.33968505,5.64887741 C6.44071835,5.52211847 6.56184736,5.41092533 6.65938754,5.28181104 C6.80131088,5.09393581 6.92922064,4.89559462 7.0649591,4.70302917 C7.12327363,4.62030508 7.18923192,4.54290614 7.24651905,4.45954714 C7.43015433,4.19232724 7.62348814,3.93069875 7.79093179,3.65364782 C8.10280559,3.1376617 8.39955625,2.61258188 8.70156713,2.09069714 C8.83414123,1.86163397 8.97444129,1.63619598 9.09254978,1.39984145 C9.22124036,1.14226826 9.32393804,0.871894239 9.44644374,0.611064519 C9.51807321,0.458642471 9.60213407,0.314515361 9.65192128,0.149906923 C9.69369486,0.0119037305 9.91117228,-0.0397092177 10.0396368,0.0327332417 C10.1112663,0.0731429032 10.1369921,0.204796884 10.0859309,0.310767278 C9.9814456,0.527603105 9.84876876,0.734239229 9.77146811,0.959963953 C9.67848952,1.23148493 9.49910763,1.45727109 9.40039623,1.71892007 C9.22269925,2.18994966 8.95317437,2.6106976 8.69108777,3.03124072 C8.52380851,3.29964853 8.38268654,3.58249568 8.20866762,3.84561931 C8.05299783,4.08101122 7.88668432,4.30945996 7.72242557,4.53907613 C7.53155749,4.8058864 7.3288539,5.06479088 7.14842408,5.33835999 C7.0288567,5.51966071 6.88259779,5.67841149 6.75760581,5.85237989 C6.6085935,6.05977382 6.43208829,6.24564188 6.28905538,6.4512949 C6.16985786,6.62270314 5.96542826,6.72703503 5.90810003,6.94217091 C5.90507951,6.95349708 5.89026458,6.96254983 5.8795592,6.97084477 C5.63701352,7.15871999 5.49319979,7.43882265 5.25235957,7.63108088 C5.14957971,7.71312908 5.0879159,7.84429151 4.99481403,7.9409429 C4.83875384,8.10295021 4.67188553,8.254553 4.51070895,8.41170624 C4.35600492,8.56253074 4.20596522,8.71489135 4.06724734,8.88382134 C3.9116392,9.0733146 3.72566148,9.24931065 3.49737594,9.37260825 C3.35594575,9.44898313 3.23648111,9.56871697 3.11459184,9.6772885 C2.94166194,9.83128761 2.77902647,9.99685867 2.60480207,10.1493217 C2.54036432,10.2056863 2.44989256,10.2315542 2.38130416,10.2842936 C2.28016811,10.3620203 2.19090867,10.454985 2.09104659,10.534514 C2.01851302,10.5922919 1.9368357,10.6385387 1.85961724,10.6905203 C1.82049432,10.7168593 1.78149468,10.7435465 1.74366627,10.7717288 C1.5595173,10.9089332 1.38784082,11.0683803 1.18871254,11.1785904 C0.957714694,11.3063939 0.773524631,11.4939619 0.548629469,11.6245918 C0.426986767,11.6952319 0.299405766,11.7525591 0.19810534,11.8553139 C0.179283598,11.8743821 0.122592346,11.856379 0.0625107147,11.8550272" id="Fill-5"></path>
                            <path d="M8.47429917,0.087942484 C8.36105528,0.330556256 8.23743649,0.549834282 8.155747,0.783848513 C8.08103549,0.997790308 7.93676923,1.17684137 7.8674805,1.38351768 C7.74762696,1.74092198 7.53724378,2.04574388 7.36553624,2.37244433 C7.17727389,2.73060802 6.99028026,3.09271231 6.76256467,3.4254468 C6.63258179,3.61537556 6.54145872,3.83442782 6.39688551,4.00095926 C6.24001386,4.18165224 6.17639346,4.42200837 5.98809018,4.5744809 C5.96382071,4.59412233 5.9554103,4.63246109 5.93658406,4.66002478 C5.80029849,4.85937403 5.66589554,5.06011892 5.52568102,5.25667692 C5.37365917,5.46981828 5.21627593,5.67912166 5.06040698,5.88947176 C5.0404348,5.9163992 5.01786378,5.94244411 4.9924279,5.96411741 C4.82014739,6.11074061 4.70628959,6.302496 4.58606771,6.48940773 C4.57872139,6.50083958 4.57348278,6.51403649 4.56454032,6.52394956 C4.39279185,6.71478138 4.21983605,6.90454594 4.04880379,7.09605505 C3.94568923,7.21152286 3.85157852,7.33567232 3.74275469,7.44531133 C3.43332915,7.75704981 3.13039047,8.0790708 2.85000234,8.41270835 C2.51407682,8.81243306 2.11121585,9.13211432 1.74490234,9.49393127 C1.64618738,9.59144062 1.50771224,9.64708108 1.39657606,9.73369221 C1.28517386,9.82050858 1.1885257,9.92618646 1.079354,10.0162046 C0.881985477,10.1789801 0.721430432,10.3864363 0.475318334,10.4915396 C0.392073633,10.5271076 0.333241648,10.6169615 0.257036323,10.6736076 C0.217276132,10.7032032 0.164071555,10.7145735 0.11702643,10.7341123 C0.0145871549,10.4880915 0.0426832646,10.3187278 0.197406269,10.1637103 C0.297574118,10.0633481 0.387019199,9.95405801 0.533577347,9.90984939 C0.585124397,9.89429222 0.61925718,9.82586533 0.665463309,9.78645932 C0.919146828,9.57005465 1.16161646,9.33723081 1.43334861,9.14650162 C1.59586813,9.03242943 1.756239,8.9196913 1.8887184,8.77473054 C1.98755614,8.66654873 2.07053482,8.54521106 2.17854011,8.44230391 C2.43009544,8.20262506 2.69562721,7.97127894 2.9094073,7.6999932 C3.11101172,7.44416199 3.38524039,7.25630615 3.55220045,6.97256236 C3.56922591,6.94362357 3.59638071,6.92067778 3.61876756,6.89489968 C3.83191329,6.64939203 4.0501953,6.40815336 4.25685415,6.15728896 C4.51506006,5.84386751 4.76941887,5.52685437 5.01446688,5.20302728 C5.17721149,4.98797719 5.31748741,4.7559743 5.47388841,4.53587532 C5.6031346,4.35399196 5.74506804,4.18115966 5.87400729,3.99905053 C5.94828907,3.89415256 6.00851256,3.77919784 6.0740565,3.66814267 C6.31093965,3.26679656 6.54585833,2.86423954 6.78525846,2.46441221 C6.83743988,2.37724694 6.91554829,2.30510521 6.96361658,2.2161954 C7.12408977,1.91937784 7.27056607,1.61486379 7.433413,1.31940082 C7.59014141,1.03502078 7.70888993,0.735186196 7.82857977,0.434674323 C7.8761774,0.315163283 7.9499476,0.206386277 8.00568962,0.0897896407 C8.04639112,0.00465624024 8.11876981,0.000818259071 8.19493421,0.000120444314 C8.29010902,-0.000762086115 8.3851815,0.000920878889 8.47429917,0.087942484" id="Fill-7"></path>
                            <path d="M6.83593467,0.13575356 C6.77494612,0.322172192 6.72805234,0.497637088 6.65970912,0.664281561 C6.60619818,0.794823834 6.50921471,0.908258587 6.46111223,1.04011367 C6.33409544,1.38825374 6.11095563,1.68718406 5.97898109,2.03450363 C5.8864637,2.27796784 5.73363383,2.49979125 5.59709078,2.72479411 C5.3877999,3.06969319 5.16849108,3.40847952 4.95508239,3.75091709 C4.81626533,3.97370458 4.68463907,4.20110742 4.54139691,4.42096161 C4.47209082,4.52734002 4.38127382,4.61942115 4.30438769,4.72118422 C4.25210594,4.79037327 4.2089612,4.86643404 4.15852325,4.9371205 C4.03341171,5.11248284 3.90651785,5.28655288 3.78027955,5.46111522 C3.68542669,5.59227287 3.59049189,5.72336898 3.49561854,5.85452663 C3.47580802,5.881952 3.45995141,5.91347989 3.43587968,5.93635145 C3.25930586,6.10418565 3.10485755,6.28910686 2.98744897,6.50370983 C2.98115959,6.51523792 2.96858083,6.52321732 2.95944382,6.53330953 C2.796596,6.71347181 2.6277866,6.88867005 2.47284661,7.07541688 C2.33077218,7.2466972 2.16876432,7.40595714 2.03877698,7.57922718 C1.83173962,7.85518337 1.54314519,8.04779681 1.34647404,8.32141457 C1.1329834,8.61845772 0.856824328,8.84633235 0.5987549,9.09512984 C0.501054408,9.18930325 0.391758512,9.27205113 0.282913321,9.35352723 C0.254826222,9.37453215 0.208424122,9.37096295 0.172797962,9.37822442 C0.0715123185,9.14388832 0.0979809778,8.99385906 0.259025971,8.84015805 C0.406344956,8.69954408 0.556450116,8.56145317 0.697049503,8.41431619 C0.761500279,8.34687072 0.79831466,8.25325115 0.861495268,8.18418518 C0.957884619,8.07877086 1.07133929,7.98911023 1.1684047,7.88427026 C1.33418209,7.70525668 1.49180583,7.51865343 1.6548585,7.33705527 C1.85847461,7.11022679 2.072334,6.8920136 2.26666968,6.65753392 C2.4682781,6.41429535 2.65165346,6.15591846 2.84351027,5.90451587 C2.86418123,5.87743922 2.88546678,5.84978822 2.91099306,5.8276346 C3.15955671,5.61194447 3.31185394,5.3217115 3.5043868,5.0626577 C3.57680686,4.96520227 3.65270963,4.87033143 3.72367514,4.77187089 C3.87416954,4.56297043 4.02882272,4.35665457 4.17003671,4.14157981 C4.35941464,3.85315195 4.53895901,3.5582216 4.72036766,3.26462456 C4.93402219,2.91888446 5.14767671,2.57312384 5.35651689,2.22449146 C5.49900105,1.98662719 5.66596666,1.75641413 5.76403591,1.50051928 C5.93843815,1.0453649 6.21179057,0.638004903 6.36998793,0.177619804 C6.40186504,0.0849027907 6.47528894,0.082872042 6.54787289,0.0694362801 C6.67921234,0.0451493456 6.69416754,0.048739053 6.83593467,0.13575356" id="Fill-9"></path>
                            <path d="M36.0729535,11.5500291 C36.0006496,11.350257 35.9207098,11.1532445 35.8476856,10.9537177 C35.8292649,10.9034119 35.8284416,10.8469941 35.8126965,10.7954414 C35.7896037,10.7197475 35.7609332,10.6457299 35.7335183,10.571426 C35.7219513,10.5400896 35.7010196,10.5108996 35.6956272,10.4788477 C35.6731724,10.3453052 35.665022,10.2093302 35.5688432,10.0979664 C35.5456063,10.0710454 35.547788,10.0204738 35.5430542,9.980225 C35.5288116,9.85943783 35.5212375,9.74118536 35.4388279,9.6358313 C35.401369,9.58793752 35.403386,9.50656102 35.3955649,9.43943205 C35.3806843,9.31185838 35.3866324,9.17968545 35.2881896,9.07608934 C35.275326,9.06255725 35.2678548,9.03862058 35.2675872,9.01938539 C35.2623389,8.6237251 35.0516017,8.26694402 35.0508813,7.86897388 C35.0505726,7.71558295 35.0418459,7.55724525 34.9368581,7.42274201 C34.9070556,7.3845987 34.9090727,7.31892105 34.904133,7.26516064 C34.8309441,6.4720208 34.7563145,5.67898317 34.6898146,4.88529142 C34.6798942,4.76689587 34.716962,4.64535236 34.7192878,4.52503533 C34.723116,4.32802284 34.7000849,4.12937505 34.7175177,3.93399785 C34.7474849,3.59861873 34.7180734,3.25992813 34.7901098,2.92645004 C34.8283508,2.74932686 34.8285154,2.56443601 34.8546955,2.38432841 C34.8904255,2.13868625 34.9341413,1.89416836 34.9753049,1.64932341 C34.9977185,1.51598532 35.0174359,1.38199311 35.0463122,1.25000414 C35.0966964,1.01973378 35.1526378,0.790649014 35.208538,0.561605126 C35.2122427,0.546478622 35.2353355,0.536012717 35.266023,0.50845795 C35.2785779,0.558130119 35.2932322,0.593207255 35.2955785,0.629040716 C35.316963,0.955119082 35.3546689,1.28160627 35.3497087,1.60737802 C35.3462715,1.83214969 35.2830442,2.05604239 35.2460175,2.28024171 C35.243877,2.29328321 35.2343476,2.30532309 35.2330304,2.3183237 C35.2128808,2.51789135 35.2089908,2.72056606 35.1701735,2.91643385 C35.1182456,3.17834722 35.1712849,3.45015414 35.1204684,3.69826969 C35.0694255,3.94728465 35.1047439,4.18027369 35.1024594,4.42011054 C35.1012862,4.5404889 35.1358225,4.66135784 35.0578997,4.77556294 C35.0352803,4.80869816 35.046518,4.86852962 35.0508402,4.91536046 C35.1200156,5.6677405 35.1905495,6.41999789 35.2610834,7.17225529 C35.2648704,7.21283111 35.257461,7.26317784 35.2786397,7.29206129 C35.4452083,7.51910193 35.3899461,7.78798576 35.4260672,8.03873823 C35.4453935,8.17277131 35.4407008,8.30692705 35.5412636,8.4204576 C35.5757587,8.45939812 35.5660029,8.53662506 35.577467,8.59619078 C35.6076605,8.75328156 35.5922653,8.91675001 35.70351,9.06049268 C35.7545323,9.12641562 35.7323657,9.24479074 35.755582,9.33634697 C35.7782837,9.42583864 35.8161542,9.51154868 35.8482001,9.59862828 C35.8528104,9.61109743 35.8682056,9.62182907 35.8683291,9.63343968 C35.8706755,9.86084827 35.9919435,10.0573702 36.0357828,10.2738427 C36.0451886,10.3202647 36.0396315,10.3788493 36.0663467,10.4111055 C36.1762536,10.5438917 36.1683502,10.7024951 36.1822841,10.8570103 C36.2116955,11.1824141 36.2413745,11.5077975 36.2680897,11.8334057 C36.2733998,11.897816 36.2661138,11.9632279 36.2646319,12.0281901 C36.2547526,12.0299685 36.2448528,12.0317469 36.2349735,12.0335048 C36.181255,11.872244 36.1307884,11.7098181 36.0729535,11.5500291 Z" id="Fill-14"></path>
                            <path d="M0.177439009,7.71585578 C0.187939994,7.48683679 0.108906268,7.26369636 0.294730708,7.03633071 C0.516540977,6.76495749 0.741626408,6.49778908 0.974858801,6.23623387 C1.07661395,6.1221122 1.14905642,5.9824147 1.23912334,5.85743401 C1.31770673,5.74841525 1.38865491,5.62872119 1.48682785,5.53997123 C1.78335273,5.27184347 1.94823661,4.91039353 2.18159182,4.59799284 C2.36704781,4.34976646 2.54871688,4.09770269 2.71521788,3.83665778 C2.95070194,3.46741058 3.17486623,3.09077435 3.39626711,2.7128726 C3.69651748,2.2004375 3.99826214,1.68849228 4.28197295,1.16693316 C4.41903844,0.91491021 4.51369059,0.640169065 4.63341818,0.378389333 C4.66973153,0.299008329 4.71961632,0.223770895 4.77418869,0.155269314 C4.84394962,0.067744052 5.00907914,0.0328809112 5.10856215,0.0731327342 C5.18200763,0.102852133 5.21895554,0.183335367 5.18464823,0.259103505 C5.06919881,0.514024914 4.95354469,0.768966734 4.8312379,1.02062227 C4.76387194,1.15921755 4.67916809,1.28932156 4.60903871,1.42667172 C4.48730507,1.66512091 4.3803506,1.91155106 4.24997873,2.14506063 C4.02739061,2.54378228 3.80813906,2.94611681 3.55554227,3.32579438 C3.37686178,3.59441202 3.22215137,3.87523584 3.0524571,4.14787458 C2.92877883,4.34658224 2.77404795,4.52585798 2.63796502,4.71721743 C2.48016367,4.93915358 2.32926064,5.16596811 2.17211432,5.38839413 C2.10304937,5.48614564 2.02442504,5.57712048 1.95288324,5.67321864 C1.8328486,5.83449129 1.71547502,5.99772345 1.5958293,6.15930227 C1.57576894,6.18640898 1.55190121,6.21147451 1.52660059,6.23388653 C1.35483887,6.38613722 1.22497874,6.57100576 1.10539443,6.76448802 C1.0842287,6.7987184 1.05407675,6.82800915 1.02535769,6.85687126 C0.91134115,6.97148282 0.779024651,7.06817292 0.712231839,7.22591435 C0.690308731,7.27773959 0.625173969,7.31013292 0.584684793,7.35571219 C0.504709459,7.44572767 0.430363307,7.54074402 0.349180257,7.62959604 C0.311086042,7.67125627 0.262511313,7.70340466 0.218706036,7.73985991 C0.204929891,7.73185853 0.191174215,7.72385716 0.177439009,7.71585578" id="Fill-16"></path>
                            <path d="M0.258807737,5.64953278 C0.205377642,5.42578753 0.229254601,5.22462469 0.246529921,5.02435862 C0.24916235,4.99397019 0.275754002,4.96400977 0.29551779,4.9369231 C0.482358594,4.68093472 0.678700824,4.43126453 0.855320397,4.16855034 C1.05359582,3.87369494 1.21540797,3.55330185 1.42807949,3.26979879 C1.62826754,3.00288607 1.77788414,2.71000765 1.94827226,2.427809 C2.12217714,2.13980169 2.31448846,1.85817372 2.44750842,1.55188444 C2.56099082,1.2905358 2.7051369,1.05046517 2.83867101,0.802078994 C2.93031246,0.631569538 2.99863224,0.44803647 3.06847389,0.266949151 C3.12644903,0.116678267 3.18693322,0.0594681257 3.33237495,0.0566351333 C3.57178209,0.0519474481 3.59413717,0.165511718 3.52507703,0.341809446 C3.44053079,0.55764678 3.30323313,0.753143636 3.21800823,0.968797538 C3.08140981,1.31434108 2.8523473,1.61192757 2.70929121,1.94895176 C2.56605002,2.28640395 2.38122467,2.59736054 2.179124,2.89594571 C1.96355269,3.21440258 1.78076336,3.54891988 1.58828751,3.87952398 C1.47764321,4.06953828 1.33207808,4.2394363 1.2044875,4.41995294 C1.07673241,4.6007753 0.952247278,4.78385999 0.825520472,4.96539569 C0.740871407,5.08660293 0.655769894,5.20750444 0.569105376,5.32728499 C0.51444133,5.40283825 0.46039426,5.47945133 0.39855273,5.5490125 C0.365709058,5.58592293 0.316803451,5.60883144 0.258807737,5.64953278" id="Fill-18"></path>
                            <path d="M1.97733647,0.143500479 C1.85533157,0.390450722 1.7149902,0.61649806 1.63155723,0.862153432 C1.5669712,1.05231437 1.43618603,1.20066949 1.37178378,1.38378058 C1.25904921,1.70429178 1.06596496,1.98155843 0.909124854,2.27798093 C0.792633144,2.49806776 0.650168174,2.70411655 0.522711338,2.9184895 C0.491224884,2.9714353 0.452203735,3.01513203 0.396050851,2.98366463 C0.364829848,2.96617361 0.342368695,2.9070412 0.341123122,2.86591366 C0.336814664,2.72269691 0.338836168,2.57884299 0.348474045,2.43591399 C0.351884056,2.3851263 0.378633248,2.33335205 0.403850997,2.28708613 C0.574902891,1.97323426 0.754877987,1.6641097 0.919354888,1.34684595 C1.08975337,1.01811335 1.24573587,0.681817067 1.40853839,0.349076536 C1.42634396,0.312676297 1.44721241,0.277797016 1.46695781,0.242383344 C1.58185682,0.0363345565 1.75286787,-0.00109335793 1.97733647,0.143500479" id="Fill-24"></path>
                        </g>
                    </g>
                </g>
            </g>
            <g id="Group-19" mask="url(#mask-7)">
                <g transform="translate(15.000000, 26.000000)">
                    <mask id="mask-11" fill="white">
                        <use xlink:href="#path-10"></use>
                    </mask>
                    <g id="Clip-18" stroke="none" fill="none"></g>
                    <path d="M4.64495407,1.71234394 C4.58526519,1.75122051 4.52910222,1.80530966 4.46462815,1.82531137 C4.37522074,1.85291937 4.27876148,1.85122909 4.18633185,1.86982223 C4.13092444,1.88080909 4.07803556,1.90588166 4.02388741,1.92503823 C3.9825837,1.93968737 3.94153185,1.9658868 3.8999763,1.96645023 C3.55292444,1.97095766 3.20587259,1.97602851 2.85882074,1.96729537 C2.77142815,1.96504166 2.68479111,1.91489651 2.59765037,1.88728851 C2.57850963,1.88137251 2.55911704,1.87658337 2.53947259,1.87292109 C2.33068741,1.8377068 2.11787259,1.8199588 1.91387259,1.76305251 C1.73505778,1.7134708 1.56329481,1.6267028 1.39329481,1.5438788 C1.24168,1.47063309 1.0915763,1.38978109 0.950539259,1.29456166 C0.77650963,1.17680509 0.612805926,1.03989194 0.444317037,0.911993657 C0.352139259,0.8418468 0.262228148,0.767474229 0.166272593,0.704651943 C0.05848,0.633941657 -0.0228681481,0.258416514 0.0501688889,0.139251371 C0.0970133333,0.0631885143 0.273813333,0.0586810857 0.355161481,0.130236514 C0.543546667,0.2956028 0.721605926,0.479843943 0.924094815,0.620137657 C1.19206519,0.8063508 1.46608,1.00242394 1.76200593,1.11144737 C2.02292444,1.20723023 2.29970963,1.28272966 2.56868741,1.35738394 C2.93790222,1.45992794 3.29376889,1.39879594 3.65416889,1.42668566 C3.77203556,1.43598223 3.89544296,1.46218166 3.99341333,1.34611537 C4.01028741,1.32611366 4.0505837,1.32216966 4.07929481,1.32414166 C4.30646519,1.33963594 4.5061837,1.24103594 4.70741333,1.14328109 C4.99805037,1.00214223 5.29019852,0.864665657 5.58133926,0.724935371 C5.60425778,0.713948514 5.62768,0.7018348 5.64707259,0.684650229 C5.84754667,0.504071371 6.0555763,0.332507371 6.24446519,0.137561086 C6.3693837,0.00909937143 6.49933926,0.0260022286 6.63735407,0.0600896571 C6.66606519,0.0671325143 6.70510222,0.1200948 6.70585778,0.153055371 C6.7093837,0.313069086 6.71366519,0.471674229 6.56582815,0.580134229 C6.34545778,0.742119943 6.12231704,0.903823943 5.92285037,1.09510794 C5.67376889,1.33371994 5.37028741,1.44696909 5.08569481,1.60247537 C4.95422815,1.67459423 4.8043763,1.70473766 4.66308741,1.75375594 C4.65704296,1.74023366 4.65099852,1.72614794 4.64495407,1.71234394" id="Fill-17" stroke="none" fill="#000000" fill-rule="evenodd" mask="url(#mask-11)"></path>
                </g>
            </g>
            <path d="M12.0588584,17.972 C11.9532063,17.9547704 11.7034276,17.9812301 11.5434227,17.8732376 C11.2945602,17.7052491 11.0386745,17.4800338 11.0060017,17.145903 C10.9458472,16.5308683 11.3464701,16.0856682 11.8225153,16.0133654 C12.4329156,15.9201411 12.88667,16.3327281 12.9260605,16.6874729 C13.0237734,17.5649511 12.6900228,17.8590847 12.0588584,17.972" id="Fill-25" fill="#000000" mask="url(#mask-7)"></path>
            <path d="M26.9319756,16.9103036 C26.9849529,17.167204 26.8357083,17.4454611 26.6743545,17.6940045 C26.5889853,17.8261689 26.3943315,17.9428574 26.2384268,17.9589524 C25.3550679,18.0496413 25.0702013,17.6540766 25.030544,17.1913464 C25.0102612,16.9520886 24.932763,16.6772361 25.144975,16.4723349 C25.357187,16.2671241 25.5588035,16.0393184 25.8772729,16.0046524 C26.414917,15.9467724 26.8895938,16.4392164 26.9319756,16.9103036" id="Fill-27" fill="#000000" mask="url(#mask-7)"></path>
        </g>
        <g id="Combined-Shape" fill="black" fill-opacity="1">
            <use filter="url(#filter-13)" xlink:href="#path-12"></use>
        </g>
    </g>
</svg>